<?xml version="1.0" encoding="UTF-8"?>
<svg version="1.1" xmlns="http://www.w3.org/2000/svg" width="719" height="602">
<path d="M0 0 C5.36692208 3.83351577 9.84351396 9.36067108 10.9921875 15.99609375 C11.2224764 17.9535494 11.42559232 19.91415779 11.625 21.875 C14.755344 25.005344 24.01645618 24.14028559 28.125 24.3125 C35.4067394 24.25487991 38.4898295 22.75394578 43.625 17.875 C55.07528304 9.01579599 66.05984992 4.82490907 80.625 5.875 C92.14812854 7.79281265 101.28039708 13.5205574 110.15625 20.8515625 C119.81140561 28.76512358 127.93929292 33.63536686 140.6875 33.28125 C155.27288234 31.77640897 169.45537058 27.20519794 183.35424805 22.73046875 C205.14832997 15.75360488 227.23652927 12.82905684 249.625 18.875 C250.635625 19.11863281 251.64625 19.36226562 252.6875 19.61328125 C284.71336229 28.23248654 311.74620122 51.11783757 330.22802734 78.10571289 C334.43377757 84.54985458 334.43377757 84.54985458 341.09375 87.74609375 C342.43594344 87.9456609 343.77985066 88.13394035 345.125 88.3125 C358.51386406 90.4941303 371.20669982 95.83526177 380 106.625 C384.63656897 113.43874048 388.15709178 121.60862152 388.625 129.875 C388.70041016 130.865 388.70041016 130.865 388.77734375 131.875 C389.44714331 146.87851018 382.25016195 159.88024979 372.625 170.875 C367.5257876 176.44855774 362.48593119 181.42176034 355.92578125 185.23046875 C353.78913303 186.7576825 352.14778112 188.31335078 350.3203125 190.1875 C346.85034643 193.72976668 343.17124739 196.74438053 339.1875 199.6875 C338.49575684 200.20103027 337.80401367 200.71456055 337.09130859 201.24365234 C314.49802495 217.79365442 276.76066971 244.67105175 247.625 241.875 C238.14354004 239.2496222 230.62754462 229.94728791 225.625 221.875 C225.625 221.215 225.625 220.555 225.625 219.875 C224.5834375 220.15214844 223.541875 220.42929687 222.46875 220.71484375 C207.99842535 224.42946121 189.41767999 228.65801228 175.625 220.875 C175.96273438 221.86757813 176.30046875 222.86015625 176.6484375 223.8828125 C184.06697482 246.21878964 184.03366456 267.91386857 179.625 290.875 C179.31755859 292.5146875 179.31755859 292.5146875 179.00390625 294.1875 C177.11409997 302.45100074 172.97695839 310.63954734 166.1875 315.9375 C159.82962827 319.70759039 152.91214707 320.18791593 145.69921875 320.32421875 C144.45686211 320.35682549 144.45686211 320.35682549 143.18940735 320.39009094 C141.44741948 320.43373774 139.70531661 320.4729965 137.96313477 320.50805664 C135.32982136 320.56214422 132.6973154 320.63252377 130.06445312 320.70507812 C104.9078027 321.33236478 104.9078027 321.33236478 99.625 316.875 C97.07537613 314.41329419 96.65727218 313.1193465 96.1875 309.5625 C96.87826477 303.74033982 99.21135466 300.32312449 103.1875 296.25 C109.05254112 291.72809807 116.58653115 288.96751777 123.625 286.875 C122.41086694 271.81975006 117.24592114 257.43503381 105.94921875 247.078125 C101.72159818 243.07076702 98.24779037 238.42303539 94.625 233.875 C93.99078125 233.11960937 93.3565625 232.36421875 92.703125 231.5859375 C83.16019312 220.11075908 75.28827688 207.43744607 68.125 194.375 C67.63290039 193.48006836 67.14080078 192.58513672 66.63378906 191.66308594 C63.52548111 185.88193346 60.92866263 180.02030059 58.625 173.875 C57.54347656 173.81183594 56.46195313 173.74867188 55.34765625 173.68359375 C32.83358639 172.0284407 11.92247596 164.23954351 -8.98901367 156.1652832 C-11.37950881 155.25434753 -13.77107846 154.364594 -16.17700195 153.49682617 C-26.59106553 149.71979764 -36.49851704 145.18233293 -46.45043945 140.33129883 C-62.69779156 132.43724991 -78.83503553 127.88827357 -96.4855957 124.39550781 C-112.20088632 121.26230054 -126.99406207 117.71775667 -136.92138672 104.17358398 C-139.37771357 100.28941916 -140.80980959 96.15598336 -142.25 91.8125 C-142.55679688 90.95333984 -142.86359375 90.09417969 -143.1796875 89.20898438 C-144.8372715 84.36573114 -146.19593767 80.03427754 -145.375 74.875 C-142.22076893 70.76103999 -138.77020792 68.83653251 -134.0625 66.8125 C-132.91523438 66.30332031 -131.76796875 65.79414063 -130.5859375 65.26953125 C-129.52632812 64.80933594 -128.46671875 64.34914063 -127.375 63.875 C-115.53326398 58.72730376 -107.08260196 49.78570868 -98.17602539 40.69067383 C-97.46953857 39.97032959 -96.76305176 39.24998535 -96.03515625 38.5078125 C-95.40230713 37.85699707 -94.76945801 37.20618164 -94.11743164 36.53564453 C-92.375 34.875 -92.375 34.875 -89.375 32.875 C-90.01160155 29.85452882 -91.06414662 27.47109277 -92.5 24.75 C-94.81052991 19.57679149 -95.03047329 15.3032098 -93.375 9.875 C-91.27548509 5.92025336 -88.86031641 2.86521094 -85.125 0.375 C-79.49869762 -0.64796407 -74.44945685 -1.10121499 -69.1875 1.375 C-65.14093412 4.97194745 -60.82249754 8.98000492 -58.375 13.875 C-54.10418086 13.90397435 -49.83338691 13.92178996 -45.5625 13.9375 C-44.34755859 13.94587891 -43.13261719 13.95425781 -41.88085938 13.96289062 C-40.71748047 13.96611328 -39.55410156 13.96933594 -38.35546875 13.97265625 C-37.28192139 13.97789307 -36.20837402 13.98312988 -35.10229492 13.98852539 C-32.28000635 13.99694588 -32.28000635 13.99694588 -29.375 12.875 C-28.25124936 11.31312886 -27.19713291 9.70045553 -26.1875 8.0625 C-19.80145346 -1.25659505 -10.79329025 -3.59776342 0 0 Z M250 50.25 C248.40968592 51.77468321 248.40968592 51.77468321 248.625 53.875 C249.99985532 55.41666642 249.99985532 55.41666642 251.625 56.875 C252.285 57.535 252.945 58.195 253.625 58.875 C255.72006252 55.42791141 255.72006252 55.42791141 257.625 51.875 C256.305 51.545 254.985 51.215 253.625 50.875 C253.625 50.215 253.625 49.555 253.625 48.875 C251.52468321 48.65968592 251.52468321 48.65968592 250 50.25 Z M267.625 79.875 C267.625 80.865 267.625 81.855 267.625 82.875 C268.615 82.545 269.605 82.215 270.625 81.875 C270.295 81.215 269.965 80.555 269.625 79.875 C268.965 79.875 268.305 79.875 267.625 79.875 Z M301.625 92.875 C301.295 94.195 300.965 95.515 300.625 96.875 C301.945 97.205 303.265 97.535 304.625 97.875 C304.955 96.555 305.285 95.235 305.625 93.875 C304.305 93.545 302.985 93.215 301.625 92.875 Z M253.625 95.875 C252.965 97.195 252.305 98.515 251.625 99.875 C252.615 101.195 253.605 102.515 254.625 103.875 C255.615 102.885 256.605 101.895 257.625 100.875 C256.965 99.225 256.305 97.575 255.625 95.875 C254.965 95.875 254.305 95.875 253.625 95.875 Z M343.625 106.875 C344.01171875 107.7721875 344.3984375 108.669375 344.796875 109.59375 C352.09493595 126.91989598 354.8690121 143.05895562 354.625 161.875 C361.46277034 159.65359238 363.63645749 154.57062977 366.89453125 148.515625 C370.5184343 140.6787746 371.17915721 131.77811449 368.5 123.5 C365.38691905 116.65410438 360.62120145 112.47210269 354.1640625 108.8203125 C350.66479018 107.5175065 347.33932415 107.2425226 343.625 106.875 Z M222.625 118.875 C222.2846875 119.98359375 221.944375 121.0921875 221.59375 122.234375 C217.87043102 133.63981944 217.87043102 133.63981944 214.7265625 136.7578125 C212.6810952 137.78458857 210.85836066 138.3851551 208.625 138.875 C207.86960937 139.08898437 207.11421875 139.30296875 206.3359375 139.5234375 C204.4483299 140.03702685 202.53780658 140.46511288 200.625 140.875 C204.22963693 143.27809128 207.81910184 144.30010112 211.93359375 145.58203125 C215.28800491 147.19351179 216.64131668 148.73453461 218.625 151.875 C219.671875 155.20703125 219.671875 155.20703125 220.375 158.6875 C220.61734375 159.84894531 220.8596875 161.01039063 221.109375 162.20703125 C221.27953125 163.08746094 221.4496875 163.96789062 221.625 164.875 C221.955 164.875 222.285 164.875 222.625 164.875 C222.79515625 164.06675781 222.9653125 163.25851562 223.140625 162.42578125 C225.71240262 151.08533631 225.71240262 151.08533631 229.625 147.875 C232.10996583 146.70096773 234.60027543 145.69635713 237.1875 144.76953125 C239.43489188 143.94476724 241.50809839 142.98735339 243.625 141.875 C242.80515625 141.63265625 241.9853125 141.3903125 241.140625 141.140625 C240.06296875 140.80546875 238.9853125 140.4703125 237.875 140.125 C236.80765625 139.80015625 235.7403125 139.4753125 234.640625 139.140625 C231.31919795 137.74665821 229.77566094 136.75534948 227.625 133.875 C226.72049705 131.25082478 225.99414892 128.80967033 225.375 126.125 C225.20226562 125.42761719 225.02953125 124.73023438 224.8515625 124.01171875 C224.43011971 122.30253412 224.02581845 120.58913847 223.625 118.875 C223.295 118.875 222.965 118.875 222.625 118.875 Z M285.625 124.875 C284.97365075 126.43520867 284.32917036 127.99828579 283.6875 129.5625 C283.32785156 130.43261719 282.96820312 131.30273438 282.59765625 132.19921875 C281.6679688 134.75679265 281.08337375 137.1971323 280.625 139.875 C275.32405784 141.67804155 270.02191512 143.38223624 264.625 144.875 C265.44318228 147.0808848 265.44318228 147.0808848 267.734375 147.65625 C268.60578125 147.8934375 269.4771875 148.130625 270.375 148.375 C272.12967868 148.85832467 273.87975287 149.3586547 275.625 149.875 C276.5221875 150.12894531 277.419375 150.38289063 278.34375 150.64453125 C280.625 151.875 280.625 151.875 281.734375 154.23046875 C282.05148437 155.63232422 282.05148437 155.63232422 282.375 157.0625 C282.60316406 158.0421875 282.83132813 159.021875 283.06640625 160.03125 C283.71092559 163.31243939 284.25574288 166.55168591 284.625 169.875 C287.04096713 167.45903287 287.30608504 165.85151171 288.125 162.5625 C290.04002137 154.93363769 290.04002137 154.93363769 291.625 151.875 C293.54296875 150.765625 293.54296875 150.765625 295.8125 150.125 C296.60914063 149.89683594 297.40578125 149.66867187 298.2265625 149.43359375 C301.36038326 148.70372996 304.42545025 148.21537763 307.625 147.875 C307.625 147.215 307.625 146.555 307.625 145.875 C306.72136719 145.59785156 305.81773437 145.32070313 304.88671875 145.03515625 C303.70722656 144.67292969 302.52773438 144.31070313 301.3125 143.9375 C300.14074219 143.57785156 298.96898437 143.21820313 297.76171875 142.84765625 C295.70946023 142.21127721 293.66339863 141.55446621 291.625 140.875 C289.13725939 135.92078151 288.20643362 130.340476 287.625 124.875 C286.965 124.875 286.305 124.875 285.625 124.875 Z M321.625 165.875 C321.295 167.195 320.965 168.515 320.625 169.875 C322.605 170.865 322.605 170.865 324.625 171.875 C325.285 170.555 325.945 169.235 326.625 167.875 C325.965 167.215 325.305 166.555 324.625 165.875 C323.635 165.875 322.645 165.875 321.625 165.875 Z M301.625 192.875 C301.625 193.535 301.625 194.195 301.625 194.875 C302.285 194.875 302.945 194.875 303.625 194.875 C303.625 194.215 303.625 193.555 303.625 192.875 C302.965 192.875 302.305 192.875 301.625 192.875 Z M264.625 194.875 C263.61388907 197.92413228 263.61388907 197.92413228 264.625 200.875 C266.275 200.545 267.925 200.215 269.625 199.875 C269.625 198.555 269.625 197.235 269.625 195.875 C267.975 195.545 266.325 195.215 264.625 194.875 Z " fill="#3D2211" transform="translate(232.375,127.125)"/>
<path d="M0 0 C4.61505646 0.20977529 8.29432492 1.44778512 12.5625 3.1875 C19.68893235 6.07636919 27.00074424 7.93778818 34.48461914 9.68041992 C41.3319119 11.39782695 41.3319119 11.39782695 44.3359375 14.10546875 C46.65413497 18.13782632 48.89089319 22.19935425 51.0625 26.3125 C58.64011371 40.34861138 67.84262704 52.9850465 77.46875 65.671875 C77.90960938 66.26033203 78.35046875 66.84878906 78.8046875 67.45507812 C80.05886747 69.11987018 80.05886747 69.11987018 81.84375 71.015625 C85.00401658 76.43932575 82.39444287 83.20740307 80.91772461 88.84570312 C80.61487549 89.94849609 80.31202637 91.05128906 80 92.1875 C79.68748291 93.33283203 79.37496582 94.47816406 79.05297852 95.65820312 C68.26562282 134.03460143 68.26562282 134.03460143 53 144 C46.74079234 146.32306441 40.77860466 146.30636029 34.15234375 146.30078125 C32.45725426 146.30720894 32.45725426 146.30720894 30.72792053 146.31376648 C28.34685942 146.31949194 25.96578082 146.32002324 23.5847168 146.31567383 C19.94614896 146.31250753 16.30838972 146.33601833 12.66992188 146.36132812 C10.35156352 146.36360068 8.03320299 146.36430482 5.71484375 146.36328125 C4.63033432 146.372491 3.54582489 146.38170074 2.42845154 146.39118958 C-3.11158388 146.35729308 -7.25911895 146.21607316 -12 143 C-14.39985495 140.12017405 -14.95987774 138.36110036 -15.375 134.625 C-14.67639312 127.8718002 -12.23054687 123.30067187 -7 119 C-1.33278403 115.45727395 3.89999527 114.26596128 10.5 113.75 C11.73363281 113.63398438 11.73363281 113.63398438 12.9921875 113.515625 C14.99351337 113.32945515 16.99662687 113.16266705 19 113 C21.52135996 99.61479378 14.59047404 85.63130603 10.32455444 73.07427979 C6.95417022 63.13575916 4.01869077 53.30594763 2 43 C1.68482422 41.51306641 1.68482422 41.51306641 1.36328125 39.99609375 C-0.67695007 29.82387662 -1.08206007 19.597501 -1.125 9.25 C-1.12967285 8.45070068 -1.1343457 7.65140137 -1.13916016 6.82788086 C-1.12306409 1.12306409 -1.12306409 1.12306409 0 0 Z " fill="#1A0C07" transform="translate(240,300)"/>
<path d="M0 0 C0.99 0.495 0.99 0.495 2 1 C1.6233803 7.35440189 0.7912784 13.55044548 -0.4453125 19.79296875 C-0.57983826 20.47449005 -0.71436401 21.15601135 -0.85296631 21.85818481 C-1.41530934 24.68361868 -1.98466385 27.50745117 -2.56689453 30.32885742 C-4.88280824 41.11056634 -4.88280824 41.11056634 -4 52 C-3.7628125 53.175625 -3.525625 54.35125 -3.28125 55.5625 C-3.0234375 56.696875 -2.765625 57.83125 -2.5 59 C1.0426561 74.58768686 2.7366892 92.02156105 -5.390625 106.47265625 C-8.79450255 111.4082787 -12.3207028 114.10466836 -18.24633789 115.54663086 C-21.51392828 116.08461431 -24.68550276 116.21736497 -27.99609375 116.31640625 C-28.66608902 116.33718735 -29.33608429 116.35796844 -30.02638245 116.37937927 C-31.44420527 116.42248378 -32.86209152 116.46354447 -34.2800293 116.50268555 C-36.39974989 116.5614534 -38.51918247 116.62682388 -40.63867188 116.69335938 C-78.49505232 117.83777356 -78.49505232 117.83777356 -85 112 C-87.53915562 109.5454829 -87.95708877 108.27892297 -88.5 104.75 C-87.71644224 98.87331677 -84.88969799 95.00085669 -80.875 90.75 C-77.31032549 88.58019813 -73.66116564 87.26966585 -69.71875 85.9296875 C-67.10616129 85.03630228 -64.55476473 84.04597252 -62 83 C-66.26951962 77.71251621 -70.53895767 72.45516985 -75.125 67.4375 C-88 53.14625 -88 53.14625 -88 46 C-87.42894531 45.81526123 -86.85789062 45.63052246 -86.26953125 45.44018555 C-65.17862058 38.54330687 -44.56744322 30.29993073 -26 18 C-25.319375 17.55092285 -24.63875 17.1018457 -23.9375 16.63916016 C-17.17592146 12.14828383 -10.57758907 7.69205791 -4.56054688 2.22338867 C-3 1 -3 1 0 0 Z " fill="#2C170B" transform="translate(582,332)"/>
<path d="M0 0 C5.36692208 3.83351577 9.84351396 9.36067108 10.9921875 15.99609375 C11.2224764 17.9535494 11.42559232 19.91415779 11.625 21.875 C14.755344 25.005344 24.01645618 24.14028559 28.125 24.3125 C35.4067394 24.25487991 38.4898295 22.75394578 43.625 17.875 C55.07528304 9.01579599 66.05984992 4.82490907 80.625 5.875 C92.14812854 7.79281265 101.28039708 13.5205574 110.15625 20.8515625 C119.81140561 28.76512358 127.93929292 33.63536686 140.6875 33.28125 C155.27288234 31.77640897 169.45537058 27.20519794 183.35424805 22.73046875 C205.14832997 15.75360488 227.23652927 12.82905684 249.625 18.875 C250.635625 19.11863281 251.64625 19.36226562 252.6875 19.61328125 C284.71336229 28.23248654 311.74620122 51.11783757 330.22802734 78.10571289 C334.43377757 84.54985458 334.43377757 84.54985458 341.09375 87.74609375 C342.43594344 87.9456609 343.77985066 88.13394035 345.125 88.3125 C358.51386406 90.4941303 371.20669982 95.83526177 380 106.625 C384.63656897 113.43874048 388.15709178 121.60862152 388.625 129.875 C388.70041016 130.865 388.70041016 130.865 388.77734375 131.875 C389.44714331 146.87851018 382.25016195 159.88024979 372.625 170.875 C367.5257876 176.44855774 362.48593119 181.42176034 355.92578125 185.23046875 C353.78913303 186.7576825 352.14778112 188.31335078 350.3203125 190.1875 C346.85034643 193.72976668 343.17124739 196.74438053 339.1875 199.6875 C338.49575684 200.20103027 337.80401367 200.71456055 337.09130859 201.24365234 C314.49802495 217.79365442 276.76066971 244.67105175 247.625 241.875 C238.14354004 239.2496222 230.62754462 229.94728791 225.625 221.875 C225.625 221.215 225.625 220.555 225.625 219.875 C224.5834375 220.15214844 223.541875 220.42929687 222.46875 220.71484375 C207.99842535 224.42946121 189.41767999 228.65801228 175.625 220.875 C175.96273438 221.86757813 176.30046875 222.86015625 176.6484375 223.8828125 C184.06697482 246.21878964 184.03366456 267.91386857 179.625 290.875 C179.31755859 292.5146875 179.31755859 292.5146875 179.00390625 294.1875 C177.11409997 302.45100074 172.97695839 310.63954734 166.1875 315.9375 C159.82962827 319.70759039 152.91214707 320.18791593 145.69921875 320.32421875 C144.45686211 320.35682549 144.45686211 320.35682549 143.18940735 320.39009094 C141.44741948 320.43373774 139.70531661 320.4729965 137.96313477 320.50805664 C135.32982136 320.56214422 132.6973154 320.63252377 130.06445312 320.70507812 C104.9078027 321.33236478 104.9078027 321.33236478 99.625 316.875 C97.07537613 314.41329419 96.65727218 313.1193465 96.1875 309.5625 C96.87826477 303.74033982 99.21135466 300.32312449 103.1875 296.25 C109.05254112 291.72809807 116.58653115 288.96751777 123.625 286.875 C122.41086694 271.81975006 117.24592114 257.43503381 105.94921875 247.078125 C101.72159818 243.07076702 98.24779037 238.42303539 94.625 233.875 C93.99078125 233.11960937 93.3565625 232.36421875 92.703125 231.5859375 C83.16019312 220.11075908 75.28827688 207.43744607 68.125 194.375 C67.63290039 193.48006836 67.14080078 192.58513672 66.63378906 191.66308594 C63.52548111 185.88193346 60.92866263 180.02030059 58.625 173.875 C57.54347656 173.81183594 56.46195313 173.74867188 55.34765625 173.68359375 C32.83358639 172.0284407 11.92247596 164.23954351 -8.98901367 156.1652832 C-11.37950881 155.25434753 -13.77107846 154.364594 -16.17700195 153.49682617 C-26.59106553 149.71979764 -36.49851704 145.18233293 -46.45043945 140.33129883 C-62.69779156 132.43724991 -78.83503553 127.88827357 -96.4855957 124.39550781 C-112.20088632 121.26230054 -126.99406207 117.71775667 -136.92138672 104.17358398 C-139.37771357 100.28941916 -140.80980959 96.15598336 -142.25 91.8125 C-142.55679688 90.95333984 -142.86359375 90.09417969 -143.1796875 89.20898438 C-144.85396431 84.31695682 -145.93742035 80.11086561 -145.375 74.875 C-143.11331337 71.88159123 -140.88746805 70.20444375 -137.75 68.1875 C-132.17919551 67.67168477 -127.82609587 70.7026334 -123.375 73.875 C-121.01541924 76.50585577 -120.42273405 77.56472868 -119.875 81.125 C-120.68804489 87.22283669 -123.61222256 91.23520703 -128.0625 95.375 C-130.375 96.875 -130.375 96.875 -132.375 96.875 C-132.375 97.865 -132.375 98.855 -132.375 99.875 C-131.83359375 100.14054687 -131.2921875 100.40609375 -130.734375 100.6796875 C-127.99974418 102.06511305 -125.31375859 103.52758458 -122.625 105 C-121.64015625 105.53882813 -120.6553125 106.07765625 -119.640625 106.6328125 C-118.89296875 107.04273438 -118.1453125 107.45265625 -117.375 107.875 C-117.375 108.205 -117.375 108.535 -117.375 108.875 C-112.095 109.205 -106.815 109.535 -101.375 109.875 C-103.355 110.865 -103.355 110.865 -105.375 111.875 C-105.375 113.855 -105.375 115.835 -105.375 117.875 C-100.76480796 120.00206015 -96.07982931 120.7811691 -91.125 121.6875 C-84.34312394 122.98613064 -77.68602318 124.48028007 -71.0625 126.4375 C-70.38864258 126.63512939 -69.71478516 126.83275879 -69.02050781 127.03637695 C-65.82695281 128.00862457 -62.79917236 129.12460769 -59.734375 130.453125 C-56.74107959 131.72005468 -54.12123315 132.49553382 -50.9375 133.0625 C-50.07253906 133.22105469 -49.20757812 133.37960937 -48.31640625 133.54296875 C-47.67574219 133.65253906 -47.03507812 133.76210938 -46.375 133.875 C-46.045 135.195 -45.715 136.515 -45.375 137.875 C-42.405 138.535 -39.435 139.195 -36.375 139.875 C-36.375 140.535 -36.375 141.195 -36.375 141.875 C-34.580625 142.431875 -34.580625 142.431875 -32.75 143 C-28.51688301 144.40213654 -24.46200731 146.09302935 -20.375 147.875 C-15.93118677 149.80585815 -11.54499293 151.59439893 -6.92578125 153.046875 C-4.21417845 153.92721159 -1.53825705 154.89316536 1.1418457 155.86450195 C8.94809347 158.6805369 16.81791195 161.24860723 24.75 163.6875 C25.72146973 163.98946289 26.69293945 164.29142578 27.69384766 164.60253906 C36.3896815 167.24312716 44.61738202 168.10086387 53.66015625 168.21679688 C59.13067238 168.42570646 59.13067238 168.42570646 61.46875 170.55078125 C62.82070393 173.26839134 64.14314159 175.9748583 65.375 178.75 C71.61360032 192.50889328 78.36877064 205.6197252 87.3046875 217.84375 C88.625 219.875 88.625 219.875 88.625 221.875 C89.285 221.875 89.945 221.875 90.625 221.875 C91.65513277 223.52321244 92.64565076 225.19611559 93.625 226.875 C97.16921829 231.93599483 97.16921829 231.93599483 101.3125 236.4921875 C102.625 237.875 102.625 237.875 102.625 239.875 C103.945 240.535 105.265 241.195 106.625 241.875 C106.625 242.535 106.625 243.195 106.625 243.875 C107.285 243.875 107.945 243.875 108.625 243.875 C116.01753402 249.94886579 119.75298561 259.37814541 123.625 267.875 C124.00527344 268.68195313 124.38554687 269.48890625 124.77734375 270.3203125 C126.00207956 274.01145175 126.43053059 277.70934242 126.875 281.5625 C126.978125 282.33400391 127.08125 283.10550781 127.1875 283.90039062 C127.42302707 285.88332074 127.53328683 287.88023848 127.625 289.875 C125.10019307 292.39980693 123.48676966 292.43238633 120 293 C118.99710937 293.16757812 117.99421875 293.33515625 116.9609375 293.5078125 C116.19007813 293.62898438 115.41921875 293.75015625 114.625 293.875 C114.295 294.865 113.965 295.855 113.625 296.875 C111.63746632 298.2799807 109.56275809 299.40967764 107.4375 300.59375 C105.31161065 301.82827565 105.31161065 301.82827565 104.625 304.875 C102.5625 306.0625 102.5625 306.0625 100.625 306.875 C100.29074265 309.24874861 100.29074265 309.24874861 100.625 311.875 C104.41594249 315.80634777 108.98119217 315.91637981 114.18066406 316.03613281 C116.00059428 316.05619583 117.82060319 316.06981044 119.640625 316.078125 C120.61102722 316.08382507 121.58142944 316.08952515 122.58123779 316.09539795 C124.63210975 316.10482772 126.68299672 316.11137388 128.73388672 316.11523438 C131.85020814 316.12492292 134.9658649 316.15595886 138.08203125 316.1875 C140.08072528 316.1940326 142.07942399 316.19928206 144.078125 316.203125 C145.00030823 316.2154718 145.92249146 316.2278186 146.87261963 316.24053955 C152.80262587 316.22041036 158.24574698 315.5399386 163.625 312.875 C163.955 312.215 164.285 311.555 164.625 310.875 C165.615 310.545 166.605 310.215 167.625 309.875 C171.54160672 304.52548838 173.95985091 298.24396009 175.625 291.875 C175.90472656 290.82699219 176.18445313 289.77898437 176.47265625 288.69921875 C180.72380365 269.9743974 179.92463365 250.32542464 175.12109375 231.81689453 C174.40144174 228.99991024 173.80948674 226.16514623 173.25 223.3125 C173.07726562 222.48621094 172.90453125 221.65992188 172.7265625 220.80859375 C172.69304687 220.17050781 172.65953125 219.53242188 172.625 218.875 C173.285 218.215 173.945 217.555 174.625 216.875 C175.841875 217.36484375 177.05875 217.8546875 178.3125 218.359375 C184.39931179 220.3835495 190.26888458 220.24162597 196.625 220.125 C197.7490625 220.11984375 198.873125 220.1146875 200.03125 220.109375 C206.30065208 220.05078246 212.40907784 219.69149825 218.625 218.875 C218.625 218.215 218.625 217.555 218.625 216.875 C225.0840985 215.53443239 225.0840985 215.53443239 227.3125 216.9375 C229.09838654 219.57380871 230.87094667 222.21734344 232.625 224.875 C236.57413707 230.37558378 242.69987582 237.55592873 249.625 238.875 C265.32439045 239.94320595 283.26170632 228.57245134 296.875 221.8125 C297.53709473 221.48386963 298.19918945 221.15523926 298.88134766 220.81665039 C310.76532155 214.85379868 321.82134725 207.6013489 332.625 199.875 C333.58019531 199.20082031 334.53539062 198.52664063 335.51953125 197.83203125 C340.26932474 194.44295504 344.59871575 191.11892124 348.625 186.875 C349.98681623 185.61064975 351.36292073 184.36158242 352.75 183.125 C353.41257812 182.53203125 354.07515625 181.9390625 354.7578125 181.328125 C356.625 179.875 356.625 179.875 359.625 178.875 C359.893125 178.05 360.16125 177.225 360.4375 176.375 C360.829375 175.55 361.22125 174.725 361.625 173.875 C364.75 173.0625 364.75 173.0625 367.625 172.875 C367.955 171.885 368.285 170.895 368.625 169.875 C367.965 169.215 367.305 168.555 366.625 167.875 C368.95714148 166.66871992 371.12142139 165.7095262 373.625 164.875 C374.81019265 162.44223614 375.625 160.59482714 375.625 157.875 C376.5840625 157.00875 376.5840625 157.00875 377.5625 156.125 C380.06850418 153.39117726 380.29480509 151.50714398 380.625 147.875 C381.285 147.875 381.945 147.875 382.625 147.875 C384.91895825 133.48562554 385.37147795 121.56156976 377.20703125 108.62890625 C373.93134178 104.54527193 370.2818303 102.20341515 365.625 99.875 C365.625 99.215 365.625 98.555 365.625 97.875 C364.14 98.37 364.14 98.37 362.625 98.875 C362.625 97.885 362.625 96.895 362.625 95.875 C361.90441406 95.73964844 361.18382812 95.60429687 360.44140625 95.46484375 C357.76549979 94.90442506 355.18654263 94.20136158 352.5625 93.4375 C347.49260277 92.00858587 342.48211068 91.20332041 337.25390625 90.59765625 C332.4999409 89.29084557 330.29421904 85.62100505 327.75 81.625 C323.81854423 75.59875341 319.81154113 69.88865642 314.625 64.875 C310.625 60.20833333 310.625 60.20833333 310.625 57.875 C310.03267578 57.61211182 309.44035156 57.34922363 308.83007812 57.07836914 C306.52513385 55.82050042 305.12944788 54.53115657 303.34375 52.62109375 C292.00719174 40.96795607 276.52130576 30.29553642 260.578125 26.4453125 C258.625 25.875 258.625 25.875 255.625 23.875 C253.74689232 23.29348221 251.84729327 22.77955572 249.9375 22.3125 C248.94363281 22.06371094 247.94976562 21.81492188 246.92578125 21.55859375 C220.99657827 16.18864047 196.57795487 21.4315858 172.09326172 30.01953125 C156.3845569 35.52505827 137.70204727 40.96781497 121.625 33.875 C119.14408301 32.34432102 116.93537456 30.66671904 114.625 28.875 C113.635 28.545 112.645 28.215 111.625 27.875 C109.93502677 26.23197047 108.27283606 24.56028688 106.625 22.875 C97.99022261 14.46106091 87.8391269 9.84503764 75.75 9.625 C64.54603385 9.84955206 56.88959296 12.30489025 47.625 18.875 C46.10975176 20.50680579 44.60945544 22.15263272 43.125 23.8125 C37.63491751 29.05262751 32.20012436 28.67531217 25.01953125 28.59741211 C19.68705945 28.35554941 11.6206992 27.8706992 7.625 23.875 C7.12723184 20.84313938 6.72396411 17.80354734 6.3203125 14.7578125 C5.59450264 11.74855587 5.18331543 10.57657724 2.625 8.875 C1.305 8.875 -0.015 8.875 -1.375 8.875 C-1.375 7.555 -1.375 6.235 -1.375 4.875 C-6.24276686 2.11659878 -11.10643704 2.58111536 -16.375 3.875 C-21.4795875 7.08899954 -23.56917282 10.74710894 -26.375 15.875 C-29.98140667 18.27927111 -32.71181206 18.22078876 -36.88671875 18.2890625 C-37.61494339 18.30842865 -38.34316803 18.3277948 -39.09346008 18.3477478 C-41.41635475 18.40746376 -43.73929919 18.45389617 -46.0625 18.5 C-47.63869332 18.53818721 -49.21486595 18.57723938 -50.79101562 18.6171875 C-54.65217535 18.71315848 -58.51343276 18.79721849 -62.375 18.875 C-62.51808594 17.93398437 -62.66117187 16.99296875 -62.80859375 16.0234375 C-63.31459662 13.21075949 -63.96335991 11.32184283 -65.375 8.875 C-66.035 8.875 -66.695 8.875 -67.375 8.875 C-68.70833333 7.54166667 -70.04166667 6.20833333 -71.375 4.875 C-76.61763058 3.12745647 -80.74154801 3.17927045 -85.75 5.3125 C-89.26035498 8.7392751 -90.29384981 11.98795526 -90.375 16.875 C-89.13151531 19.25805196 -89.13151531 19.25805196 -87.375 20.875 C-87.375 21.865 -87.375 22.855 -87.375 23.875 C-86.715 24.205 -86.055 24.535 -85.375 24.875 C-85.375 28.175 -85.375 31.475 -85.375 34.875 C-86.365 35.37 -86.365 35.37 -87.375 35.875 C-87.375 37.195 -87.375 38.515 -87.375 39.875 C-87.99375 40.1225 -88.6125 40.37 -89.25 40.625 C-91.7822196 42.11454094 -92.18218658 43.25081048 -93.375 45.875 C-95.93242677 49.37463663 -99.29872608 49.87515923 -103.375 50.875 C-103.705 52.195 -104.035 53.515 -104.375 54.875 C-106.025 54.215 -107.675 53.555 -109.375 52.875 C-103.53199227 45.76863925 -97.06247744 37.99998496 -89.375 32.875 C-90.01160155 29.85452882 -91.06414662 27.47109277 -92.5 24.75 C-94.81052991 19.57679149 -95.03047329 15.3032098 -93.375 9.875 C-91.27548509 5.92025336 -88.86031641 2.86521094 -85.125 0.375 C-79.49869762 -0.64796407 -74.44945685 -1.10121499 -69.1875 1.375 C-65.14093412 4.97194745 -60.82249754 8.98000492 -58.375 13.875 C-54.10418086 13.90397435 -49.83338691 13.92178996 -45.5625 13.9375 C-44.34755859 13.94587891 -43.13261719 13.95425781 -41.88085938 13.96289062 C-40.71748047 13.96611328 -39.55410156 13.96933594 -38.35546875 13.97265625 C-37.28192139 13.97789307 -36.20837402 13.98312988 -35.10229492 13.98852539 C-32.28000635 13.99694588 -32.28000635 13.99694588 -29.375 12.875 C-28.25124936 11.31312886 -27.19713291 9.70045553 -26.1875 8.0625 C-19.80145346 -1.25659505 -10.79329025 -3.59776342 0 0 Z " fill="#160501" transform="translate(232.375,127.125)"/>
<path d="M0 0 C2.76209407 1.80797492 4.97340238 4.04593148 7.27734375 6.39648438 C10.24711406 9.37473975 13.22603448 11.39438934 16.82421875 13.51367188 C17.89929688 14.15820312 18.974375 14.80273438 20.08203125 15.46679688 C22.42878357 16.8060102 24.79032601 18.0442324 27.19921875 19.26367188 C30.01171875 21.13867188 30.01171875 21.13867188 31.38671875 23.95117188 C34.63680564 40.526615 33.0824729 59.26990597 24.26171875 74.07617188 C19.49702034 78.44381209 13.28905131 81.25062321 6.80322266 81.28393555 C5.95869537 81.2903154 5.11416809 81.29669525 4.24404907 81.30326843 C3.33464569 81.30438126 2.42524231 81.30549408 1.48828125 81.30664062 C0.54995453 81.30996902 -0.38837219 81.31329742 -1.35513306 81.31672668 C-3.34059153 81.32179 -5.32605851 81.32413519 -7.31152344 81.32397461 C-10.34454431 81.32615838 -13.37719987 81.34431296 -16.41015625 81.36328125 C-18.33984251 81.36621585 -20.26953049 81.3682002 -22.19921875 81.36914062 C-23.10457367 81.37632614 -24.00992859 81.38351166 -24.94271851 81.39091492 C-30.28510703 81.3715967 -34.17700359 80.88360283 -38.80078125 78.01367188 C-40.7832084 74.88352375 -40.57383673 71.6654658 -39.98828125 68.13867188 C-35.9596266 59.91350197 -28.18322371 54.67097466 -19.98828125 51.13867188 C-19.32828125 51.13867188 -18.66828125 51.13867188 -17.98828125 51.13867188 C-20.22723919 38.69229078 -23.10262589 26.58356428 -26.70141602 14.45532227 C-26.99717529 13.4446167 -27.29293457 12.43391113 -27.59765625 11.39257812 C-27.86545898 10.49869385 -28.13326172 9.60480957 -28.40917969 8.68383789 C-29.00100604 6.0827461 -29.09465689 3.79656889 -28.98828125 1.13867188 C-21.46508342 -2.758696 -7.78672103 -3.37322591 0 0 Z " fill="#1B0E08" transform="translate(456.98828125,362.861328125)"/>
<path d="M0 0 C8.00947323 8.24504597 10.1439387 19.69955158 10.375 30.8125 C10.20598888 38.00649488 9.37159178 42.00063393 4.875 47.6875 C-1.8997766 53.13677683 -8.10526852 54.68043724 -16.78515625 54.38671875 C-24.55380117 53.4522159 -31.08105275 50.01823789 -37 45 C-37 44.01 -37 43.02 -37 42 C-35.55736526 41.09415958 -34.11422573 40.18910841 -32.66796875 39.2890625 C-28.38754857 35.98100943 -26.26167533 31.54388447 -25.375 26.3125 C-26.19685561 21.95666528 -27.50439859 20.69452609 -31 18 C-33.60867623 16.52448258 -36.26161376 15.21630555 -39 14 C-35.80107279 9.92863809 -32.07817048 8.74338868 -27.3828125 7.01171875 C-24.81127168 6.06066472 -24.81127168 6.06066472 -22.4375 3.8125 C-19.32765481 1.50005102 -16.99825604 1.47024086 -13.20703125 1.21875 C-10.77889975 1.06437765 -10.77889975 1.06437765 -7.75 -0.125 C-4.56576449 -1.13816584 -3.10429945 -1.22538136 0 0 Z " fill="#F8F8F5" transform="translate(137,182)"/>
<path d="M0 0 C0.99 0.495 0.99 0.495 2 1 C1.6233803 7.35440189 0.7912784 13.55044548 -0.4453125 19.79296875 C-0.57983826 20.47449005 -0.71436401 21.15601135 -0.85296631 21.85818481 C-1.41530934 24.68361868 -1.98466385 27.50745117 -2.56689453 30.32885742 C-4.88280824 41.11056634 -4.88280824 41.11056634 -4 52 C-3.7628125 53.175625 -3.525625 54.35125 -3.28125 55.5625 C-3.0234375 56.696875 -2.765625 57.83125 -2.5 59 C1.0426561 74.58768686 2.7366892 92.02156105 -5.390625 106.47265625 C-8.78612207 111.396127 -12.28812281 114.03517994 -18.1640625 115.5625 C-21.88610172 116.13669889 -25.55823194 116.10611527 -29.3125 116.0625 C-30.05306641 116.05798828 -30.79363281 116.05347656 -31.55664062 116.04882812 C-33.37112899 116.03712175 -35.18557534 116.01918898 -37 116 C-37 115.01 -37 114.02 -37 113 C-35.96101562 112.97421875 -34.92203125 112.9484375 -33.8515625 112.921875 C-21.83180738 112.67365102 -21.83180738 112.67365102 -11 108 C-9.34278873 105.62381399 -8.7664076 103.84665679 -8 101 C-7.34 101 -6.68 101 -6 101 C-4.40824867 94.84272486 -3.61411838 89.04492779 -3.625 82.6875 C-3.62443604 81.83446289 -3.62387207 80.98142578 -3.62329102 80.10253906 C-3.75899901 71.99565514 -5.21867068 64.33306918 -7.02734375 56.453125 C-8.90659785 48.03651354 -8.94496727 41.26208611 -7.6875 32.75 C-7.55666016 31.7703125 -7.42582031 30.790625 -7.29101562 29.78125 C-6.67206005 25.40370914 -6.05740745 21.93209304 -4 18 C-3.56526661 15.92830754 -3.19345777 13.84272249 -2.875 11.75 C-2.70742188 10.67234375 -2.53984375 9.5946875 -2.3671875 8.484375 C-2.18542969 7.25460937 -2.18542969 7.25460937 -2 6 C-2.74121094 6.60585938 -3.48242188 7.21171875 -4.24609375 7.8359375 C-12.42430581 14.38933047 -20.9994933 19.80364158 -30.12353516 24.94287109 C-31.75889255 25.86416924 -33.38605124 26.79999066 -35.01171875 27.73828125 C-40.71742958 31 -40.71742958 31 -43 31 C-43 31.66 -43 32.32 -43 33 C-44.02480469 33.39832031 -45.04960938 33.79664063 -46.10546875 34.20703125 C-47.46623758 34.74195417 -48.82690957 35.27712349 -50.1875 35.8125 C-50.86103516 36.07353516 -51.53457031 36.33457031 -52.22851562 36.60351562 C-55.09380146 37.73565295 -57.72655173 38.82863908 -60.34375 40.46875 C-64.43461067 42.82701086 -68.85144008 44.17736028 -73.3125 45.6875 C-74.24384766 46.00783203 -75.17519531 46.32816406 -76.13476562 46.65820312 C-78.42148724 47.44389722 -80.70986781 48.2243152 -83 49 C-82.67902344 49.61488281 -82.35804688 50.22976563 -82.02734375 50.86328125 C-81 53 -81 53 -80.5625 55.1875 C-80.376875 55.785625 -80.19125 56.38375 -80 57 C-79.01 57.33 -78.02 57.66 -77 58 C-75.63636792 59.97946592 -74.30581356 61.9819245 -73 64 C-71.68945377 65.35573748 -70.35251497 66.68612831 -69 68 C-58.07778707 79.86863419 -58.07778707 79.86863419 -57.90234375 84.67578125 C-57.93457031 85.44277344 -57.96679688 86.20976562 -58 87 C-59.01320313 87.24234375 -60.02640625 87.4846875 -61.0703125 87.734375 C-62.42202833 88.07230396 -63.77358243 88.41088024 -65.125 88.75 C-65.79015625 88.90726562 -66.4553125 89.06453125 -67.140625 89.2265625 C-73.78493659 90.92021055 -79.38450475 93.97417459 -83 100 C-83.59995097 102.99471322 -83.86715584 105.95122645 -84 109 C-83.34 109 -82.68 109 -82 109 C-82 109.66 -82 110.32 -82 111 C-72.67809502 112.81847768 -63.46383622 113.54362211 -54 114 C-53.67 114.99 -53.34 115.98 -53 117 C-79.46311764 117.35231961 -79.46311764 117.35231961 -86.875 110.1875 C-88.58766304 106.85732186 -88.49453679 104.70902594 -88 101 C-85.27125418 94.99226743 -81.62173978 90.47714462 -75.4140625 87.9453125 C-73.52371477 87.25100248 -71.62544751 86.57775042 -69.71875 85.9296875 C-67.10616129 85.03630228 -64.55476473 84.04597252 -62 83 C-66.26951962 77.71251621 -70.53895767 72.45516985 -75.125 67.4375 C-88 53.14625 -88 53.14625 -88 46 C-87.42894531 45.81526123 -86.85789062 45.63052246 -86.26953125 45.44018555 C-65.17862058 38.54330687 -44.56744322 30.29993073 -26 18 C-25.319375 17.55092285 -24.63875 17.1018457 -23.9375 16.63916016 C-17.17592146 12.14828383 -10.57758907 7.69205791 -4.56054688 2.22338867 C-3 1 -3 1 0 0 Z " fill="#0A0100" transform="translate(582,332)"/>
<path d="M0 0 C2.76209407 1.80797492 4.97340238 4.04593148 7.27734375 6.39648438 C10.24711406 9.37473975 13.22603448 11.39438934 16.82421875 13.51367188 C17.89929688 14.15820312 18.974375 14.80273438 20.08203125 15.46679688 C22.42878357 16.8060102 24.79032601 18.0442324 27.19921875 19.26367188 C30.01171875 21.13867188 30.01171875 21.13867188 31.38671875 23.95117188 C34.63680564 40.526615 33.0824729 59.26990597 24.26171875 74.07617188 C19.49702034 78.44381209 13.28905131 81.25062321 6.80322266 81.28393555 C5.95869537 81.2903154 5.11416809 81.29669525 4.24404907 81.30326843 C3.33464569 81.30438126 2.42524231 81.30549408 1.48828125 81.30664062 C0.54995453 81.30996902 -0.38837219 81.31329742 -1.35513306 81.31672668 C-3.34059153 81.32179 -5.32605851 81.32413519 -7.31152344 81.32397461 C-10.34454431 81.32615838 -13.37719987 81.34431296 -16.41015625 81.36328125 C-18.33984251 81.36621585 -20.26953049 81.3682002 -22.19921875 81.36914062 C-23.10457367 81.37632614 -24.00992859 81.38351166 -24.94271851 81.39091492 C-30.28510703 81.3715967 -34.17700359 80.88360283 -38.80078125 78.01367188 C-40.7832084 74.88352375 -40.57383673 71.6654658 -39.98828125 68.13867188 C-35.9596266 59.91350197 -28.18322371 54.67097466 -19.98828125 51.13867188 C-19.32828125 51.13867188 -18.66828125 51.13867188 -17.98828125 51.13867188 C-20.22723919 38.69229078 -23.10262589 26.58356428 -26.70141602 14.45532227 C-26.99717529 13.4446167 -27.29293457 12.43391113 -27.59765625 11.39257812 C-27.86545898 10.49869385 -28.13326172 9.60480957 -28.40917969 8.68383789 C-29.00100604 6.0827461 -29.09465689 3.79656889 -28.98828125 1.13867188 C-21.46508342 -2.758696 -7.78672103 -3.37322591 0 0 Z M-14.734375 2.35742188 C-15.95253906 2.45023437 -17.17070312 2.54304688 -18.42578125 2.63867188 C-19.66199219 2.73148437 -20.89820313 2.82429688 -22.171875 2.91992188 C-23.56599609 3.02820313 -23.56599609 3.02820313 -24.98828125 3.13867188 C-24.85550781 3.73035156 -24.72273438 4.32203125 -24.5859375 4.93164062 C-24.40933594 5.72183594 -24.23273438 6.51203125 -24.05078125 7.32617188 C-23.87675781 8.10347656 -23.70273437 8.88078125 -23.5234375 9.68164062 C-23.1728586 11.29123281 -22.84511226 12.90600745 -22.54296875 14.52539062 C-21.87708269 17.66255805 -20.96974349 20.691217 -20.05078125 23.76367188 C-16.9897629 34.46053962 -15.66932792 43.99302491 -15.98828125 55.13867188 C-17.33212891 55.32042969 -17.33212891 55.32042969 -18.703125 55.50585938 C-24.82872259 56.68581991 -30.16238305 59.57478031 -33.98828125 64.57617188 C-35.94399911 67.69309721 -36.98828125 70.39606153 -36.98828125 74.13867188 C-35.56032697 76.43926488 -34.50984527 76.99811157 -31.9128418 77.69799805 C-28.04982195 78.28007926 -24.21832955 78.34077474 -20.3203125 78.37695312 C-19.48545822 78.38502487 -18.65060394 78.39309662 -17.79045105 78.40141296 C-16.02625578 78.415209 -14.26203432 78.42595108 -12.49780273 78.43383789 C-10.70865965 78.44533686 -8.91955031 78.46575565 -7.13061523 78.49536133 C7.05316106 79.11515653 7.05316106 79.11515653 20.01171875 74.13867188 C29.77839021 63.53481576 29.1173954 46.72305137 29.14453125 33.26367188 C29.22902823 30.23259802 29.22902823 30.23259802 28.01171875 28.13867188 C27.91246094 27.32785156 27.81320312 26.51703125 27.7109375 25.68164062 C27.25170108 23.04449659 27.25170108 23.04449659 25.21875 21.68945312 C24.42855469 21.28082031 23.63835937 20.8721875 22.82421875 20.45117188 C18.25977629 17.91974258 14.04409468 15.1328805 9.82421875 12.07617188 C9.25485596 11.66471924 8.68549316 11.2532666 8.09887695 10.8293457 C7.54031006 10.42482178 6.98174316 10.02029785 6.40625 9.60351562 C5.84760254 9.20374512 5.28895508 8.80397461 4.71337891 8.39208984 C3.54420316 7.5308921 2.39866353 6.63695589 1.27490234 5.71728516 C-4.13760431 1.43043503 -7.94717173 1.96108884 -14.734375 2.35742188 Z " fill="#030000" transform="translate(456.98828125,362.861328125)"/>
<path d="M0 0 C1.03382812 0.52851563 2.06765625 1.05703125 3.1328125 1.6015625 C5.82515625 3.34276487 7.26992925 4.62806684 8.875 7.375 C9.72533199 12.90215794 8.35345956 16.12508758 5.3125 20.57421875 C3.41828193 22.94713867 1.41975185 24.72435015 -1.125 26.375 C-1.785 26.375 -2.445 26.375 -3.125 26.375 C-3.125 27.365 -3.125 28.355 -3.125 29.375 C-2.58359375 29.64054687 -2.0421875 29.90609375 -1.484375 30.1796875 C1.25025582 31.56511305 3.93624141 33.02758458 6.625 34.5 C7.60984375 35.03882813 8.5946875 35.57765625 9.609375 36.1328125 C10.35703125 36.54273438 11.1046875 36.95265625 11.875 37.375 C11.875 37.705 11.875 38.035 11.875 38.375 C17.155 38.705 22.435 39.035 27.875 39.375 C26.555 40.035 25.235 40.695 23.875 41.375 C23.66529441 45.51593698 23.66529441 45.51593698 24.875 49.375 C19.72641795 48.03189164 14.91837152 46.23852802 10.01171875 44.1796875 C7.94359113 43.25752149 7.94359113 43.25752149 5.875 43.375 C7.195 44.365 8.515 45.355 9.875 46.375 C3.87950743 46.00028171 -0.73669346 42.07808502 -4.57910156 37.72924805 C-8.67382165 32.62881849 -10.95261846 27.48721659 -13 21.3125 C-13.30679688 20.45333984 -13.61359375 19.59417969 -13.9296875 18.70898438 C-15.60341761 13.81855422 -16.69391061 9.60897764 -16.125 4.375 C-11.22164758 -1.92931026 -7.13513118 -3.77321474 0 0 Z " fill="#180F0D" transform="translate(103.125,197.625)"/>
<path d="M0 0 C4.3969954 1.28773306 8.79238352 2.58086993 13.1875 3.875 C14.43337891 4.23980469 15.67925781 4.60460937 16.96289062 4.98046875 C18.16494141 5.33496094 19.36699219 5.68945312 20.60546875 6.0546875 C21.71043701 6.37937012 22.81540527 6.70405273 23.95385742 7.03857422 C33.0322698 9.90390947 35.39279984 14.04976534 39.7734375 22.3671875 C40.08337646 22.96563477 40.39331543 23.56408203 40.71264648 24.18066406 C47.86992822 37.99692441 57.08324583 50.30050789 66.46875 62.671875 C66.90960938 63.26033203 67.35046875 63.84878906 67.8046875 64.45507812 C69.05886747 66.11987018 69.05886747 66.11987018 70.84375 68.015625 C74.00401658 73.43932575 71.39444287 80.20740307 69.91772461 85.84570312 C69.61487549 86.94849609 69.31202637 88.05128906 69 89.1875 C68.68748291 90.33283203 68.37496582 91.47816406 68.05297852 92.65820312 C57.26562282 131.03460143 57.26562282 131.03460143 42 141 C36.4783353 142.95155488 31.60960863 143.26890751 25.78515625 143.1953125 C24.92941513 143.1924826 24.07367401 143.18965271 23.19200134 143.18673706 C20.48202009 143.17561935 17.77237991 143.15053082 15.0625 143.125 C13.21549959 143.11495931 11.36849396 143.10583537 9.52148438 143.09765625 C5.01419323 143.07570763 0.50715427 143.04123654 -4 143 C-3.505 142.01 -3.505 142.01 -3 141 C-6.3 140.67 -9.6 140.34 -13 140 C-13 139.67 -13 139.34 -13 139 C-12.37883301 139.00523682 -11.75766602 139.01047363 -11.11767578 139.01586914 C1.29747522 139.10547237 13.71321364 139.0690485 26.125 138.75 C27.20765137 138.73590088 28.29030273 138.72180176 29.40576172 138.70727539 C35.75532141 138.50688397 39.83929788 137.80262261 45 134 C45.33 133.34 45.66 132.68 46 132 C46.66 132 47.32 132 48 132 C48.27328125 131.43152344 48.5465625 130.86304688 48.828125 130.27734375 C50 128 50 128 51.296875 125.94140625 C56.07353542 118.12155088 58.257605 109.88057538 60.60546875 101.0859375 C61.69376601 97.01042261 62.95914983 93.02790416 64.31958008 89.03613281 C65.2407524 86.27955687 66.01980056 83.50025805 66.75 80.6875 C67.01296875 79.70136719 67.2759375 78.71523438 67.546875 77.69921875 C68.34134043 72.96667037 66.83481663 70.4295929 64.1875 66.5625 C63.65253906 65.77875 63.11757813 64.995 62.56640625 64.1875 C61.31170578 62.43529984 59.97996241 60.73837456 58.625 59.0625 C57 57 57 57 57 55 C56.34 55 55.68 55 55 55 C53.35102892 52.57025468 51.8170953 50.14227137 50.3125 47.625 C46.95410858 42.10833224 43.52702835 36.76710712 39.61328125 31.62109375 C38 29 38 29 36.91796875 25.41015625 C35.4124394 20.75040797 33.87176349 17.15806641 30 14 C19.89682149 9.22767985 8.8247674 6.61874368 -2 4 C-1.34 3.67 -0.68 3.34 0 3 C0 2.01 0 1.02 0 0 Z " fill="#040000" transform="translate(251,303)"/>
<path d="M0 0 C0.99 0 1.98 0 3 0 C3.18175781 1.01320312 3.36351562 2.02640625 3.55078125 3.0703125 C3.80421582 4.42196353 4.05814865 5.77352119 4.3125 7.125 C4.43044922 7.79015625 4.54839844 8.4553125 4.66992188 9.140625 C5.70599698 14.56009476 6.82041663 19.26461497 11.26171875 22.80078125 C14.46562758 24.20391964 17.34766477 24.73252164 20.8125 25.1875 C22.55466797 25.42533203 22.55466797 25.42533203 24.33203125 25.66796875 C25.21246094 25.77753906 26.09289062 25.88710938 27 26 C26.67 27.98 26.34 29.96 26 32 C24.33710938 32.34611328 24.33710938 32.34611328 22.640625 32.69921875 C21.17685477 33.02762874 19.71332517 33.35711257 18.25 33.6875 C17.52039063 33.83638672 16.79078125 33.98527344 16.0390625 34.13867188 C12.43725973 34.97363524 10.39119391 35.63968982 7.625 38.1875 C5.71068297 41.50074101 4.71814102 44.61281824 3.75 48.3125 C3.24726563 50.19388672 3.24726563 50.19388672 2.734375 52.11328125 C2.49203125 53.06589844 2.2496875 54.01851563 2 55 C0.34385343 55.38218767 -1.32457024 55.71395102 -3 56 C-5.26410365 53.73589635 -5.1163605 48.18979629 -5.54296875 44.99023438 C-6.14892225 41.26940754 -6.60798447 39.42508538 -9.22265625 36.58984375 C-12.2349038 34.86553327 -14.79468906 34.07463555 -18.1875 33.375 C-23.80187207 32.19812793 -23.80187207 32.19812793 -26 30 C-26 28.68 -26 27.36 -26 26 C-24.42798828 25.58427734 -24.42798828 25.58427734 -22.82421875 25.16015625 C-21.44529933 24.79432048 -20.0663938 24.42843233 -18.6875 24.0625 C-17.99720703 23.88009766 -17.30691406 23.69769531 -16.59570312 23.50976562 C-13.70112156 22.7406739 -10.84215271 21.94738424 -8 21 C-7.07592489 19.24407593 -7.07592489 19.24407593 -6.5 17.0625 C-6.25378906 16.258125 -6.00757813 15.45375 -5.75390625 14.625 C-5.23945327 12.83374403 -4.72649662 11.0420578 -4.21484375 9.25 C-3.95832031 8.363125 -3.70179688 7.47625 -3.4375 6.5625 C-3.20933594 5.73878906 -2.98117187 4.91507813 -2.74609375 4.06640625 C-2 2 -2 2 0 0 Z M0 6 C-0.3403125 7.10859375 -0.680625 8.2171875 -1.03125 9.359375 C-4.75456898 20.76481944 -4.75456898 20.76481944 -7.8984375 23.8828125 C-9.9439048 24.90958857 -11.76663934 25.5101551 -14 26 C-14.75539063 26.21398437 -15.51078125 26.42796875 -16.2890625 26.6484375 C-18.1766701 27.16202685 -20.08719342 27.59011288 -22 28 C-18.39536307 30.40309128 -14.80589816 31.42510112 -10.69140625 32.70703125 C-7.33699509 34.31851179 -5.98368332 35.85953461 -4 39 C-2.953125 42.33203125 -2.953125 42.33203125 -2.25 45.8125 C-2.00765625 46.97394531 -1.7653125 48.13539063 -1.515625 49.33203125 C-1.34546875 50.21246094 -1.1753125 51.09289062 -1 52 C-0.67 52 -0.34 52 0 52 C0.17015625 51.19175781 0.3403125 50.38351562 0.515625 49.55078125 C3.08740262 38.21033631 3.08740262 38.21033631 7 35 C9.48496583 33.82596773 11.97527543 32.82135713 14.5625 31.89453125 C16.80989188 31.06976724 18.88309839 30.11235339 21 29 C20.18015625 28.75765625 19.3603125 28.5153125 18.515625 28.265625 C17.43796875 27.93046875 16.3603125 27.5953125 15.25 27.25 C14.18265625 26.92515625 13.1153125 26.6003125 12.015625 26.265625 C8.69419795 24.87165821 7.15066094 23.88034948 5 21 C4.09549705 18.37582478 3.36914892 15.93467033 2.75 13.25 C2.57726562 12.55261719 2.40453125 11.85523438 2.2265625 11.13671875 C1.80511971 9.42753412 1.40081845 7.71413847 1 6 C0.67 6 0.34 6 0 6 Z " fill="#1E0A01" transform="translate(455,240)"/>
<path d="M0 0 C9.42188717 -0.69791757 16.19928221 2.14008735 23.375 8.25 C30.29603387 14.89983348 32.78052876 21.56514357 34 31 C34 32.32 34 33.64 34 35 C33.34 35 32.68 35 32 35 C31.896875 35.845625 31.79375 36.69125 31.6875 37.5625 C29.68198077 47.59009616 23.61870709 55.58587279 16.7109375 62.8828125 C15 64 15 64 12.7890625 63.6796875 C12.19867187 63.45539063 11.60828125 63.23109375 11 63 C11.01160156 62.23558594 11.02320313 61.47117187 11.03515625 60.68359375 C11.19897768 41.23564978 8.35766683 24.90953033 1 7 C0.67 6.67 0.34 6.34 0 6 C-0.04080783 4.00041636 -0.04254356 1.99954746 0 0 Z M3 3 C3.38671875 3.8971875 3.7734375 4.794375 4.171875 5.71875 C11.46993595 23.04489598 14.2440121 39.18395562 14 58 C20.83777034 55.77859238 23.01145749 50.69562977 26.26953125 44.640625 C29.8934343 36.8037746 30.55415721 27.90311449 27.875 19.625 C24.76191905 12.77910438 19.99620145 8.59710269 13.5390625 4.9453125 C10.03979018 3.6425065 6.71432415 3.3675226 3 3 Z " fill="#0B0100" transform="translate(573,231)"/>
<path d="M0 0 C3.875 0.875 3.875 0.875 5 2 C5.34912328 3.72214591 5.65431609 5.45329111 5.9375 7.1875 C6.86829837 13.28628551 6.86829837 13.28628551 9 19 C14.7673111 22.38516086 21.53170691 23.5024149 28 25 C28.495 27.475 28.495 27.475 29 30 C28.071875 30.268125 27.14375 30.53625 26.1875 30.8125 C25.24583984 31.08513672 25.24583984 31.08513672 24.28515625 31.36328125 C22.56983728 31.84122483 20.84706151 32.29253663 19.12109375 32.73046875 C17.63802734 33.11138672 17.63802734 33.11138672 16.125 33.5 C15.17882812 33.7371875 14.23265625 33.974375 13.2578125 34.21875 C10.82588721 34.76571063 10.82588721 34.76571063 10 37 C9.34 37 8.68 37 8 37 C7.81824219 37.64066406 7.63648438 38.28132813 7.44921875 38.94140625 C5.93729955 44.14395897 4.24999329 49.07144327 2 54 C0.68 54 -0.64 54 -2 54 C-2.17015625 52.96359375 -2.3403125 51.9271875 -2.515625 50.859375 C-2.75958686 49.4894353 -3.00442479 48.11965141 -3.25 46.75 C-3.35957031 46.06808594 -3.46914063 45.38617188 -3.58203125 44.68359375 C-4.39819831 40.25910915 -5.38955449 37.74176689 -9 35 C-10.485 34.505 -10.485 34.505 -12 34 C-12 33.34 -12 32.68 -12 32 C-12.67546875 31.90203125 -13.3509375 31.8040625 -14.046875 31.703125 C-22.90685413 30.21792619 -22.90685413 30.21792619 -26 26 C-25.505 24.515 -25.505 24.515 -25 23 C-23.72125 22.896875 -22.4425 22.79375 -21.125 22.6875 C-15.86329406 22.11866692 -11.00852854 20.6625387 -6 19 C-5.88785156 18.32582031 -5.77570313 17.65164063 -5.66015625 16.95703125 C-4.87079499 13.42125328 -3.68500151 10.08056434 -2.4375 6.6875 C-2.20353516 6.04232422 -1.96957031 5.39714844 -1.72851562 4.73242188 C-1.15552993 3.15378781 -0.57820536 1.57672974 0 0 Z M1 6 C0.34865075 7.56020867 -0.29582964 9.12328579 -0.9375 10.6875 C-1.29714844 11.55761719 -1.65679688 12.42773438 -2.02734375 13.32421875 C-2.9570312 15.88179265 -3.54162625 18.3221323 -4 21 C-9.30094216 22.80304155 -14.60308488 24.50723624 -20 26 C-19.18181772 28.2058848 -19.18181772 28.2058848 -16.890625 28.78125 C-16.01921875 29.0184375 -15.1478125 29.255625 -14.25 29.5 C-12.49532132 29.98332467 -10.74524713 30.4836547 -9 31 C-8.1028125 31.25394531 -7.205625 31.50789063 -6.28125 31.76953125 C-4 33 -4 33 -2.890625 35.35546875 C-2.57351563 36.75732422 -2.57351563 36.75732422 -2.25 38.1875 C-2.02183594 39.1671875 -1.79367187 40.146875 -1.55859375 41.15625 C-0.91407441 44.43743939 -0.36925712 47.67668591 0 51 C2.41596713 48.58403287 2.68108504 46.97651171 3.5 43.6875 C5.41502137 36.05863769 5.41502137 36.05863769 7 33 C8.91796875 31.890625 8.91796875 31.890625 11.1875 31.25 C11.98414063 31.02183594 12.78078125 30.79367187 13.6015625 30.55859375 C16.73538326 29.82872996 19.80045025 29.34037763 23 29 C23 28.34 23 27.68 23 27 C22.09636719 26.72285156 21.19273437 26.44570313 20.26171875 26.16015625 C19.08222656 25.79792969 17.90273438 25.43570312 16.6875 25.0625 C15.51574219 24.70285156 14.34398437 24.34320313 13.13671875 23.97265625 C11.08446023 23.33627721 9.03839863 22.67946621 7 22 C4.51225939 17.04578151 3.58143362 11.465476 3 6 C2.34 6 1.68 6 1 6 Z " fill="#190801" transform="translate(517,246)"/>
<path d="M0 0 C2.75803634 2.54029662 3.82230589 4.43137885 4.9375 8 C5.01357661 11.65167723 4.22216696 13.14292819 2 16 C-1.7373856 18.4915904 -3.57331583 18.45793285 -8 18 C-10.9375 16.625 -10.9375 16.625 -13 14 C-13.65195872 10.55720043 -13.63617698 7.44452579 -13 4 C-9.22703998 -1.15637869 -6.07007731 -1.46519107 0 0 Z " fill="#F0ECE9" transform="translate(173,179)"/>
<path d="M0 0 C5.37305699 -0.35233161 5.37305699 -0.35233161 8 0 C10 2 10 2 11 4 C8.69 4 6.38 4 4 4 C4.38671875 4.825 4.7734375 5.65 5.171875 6.5 C13.73032168 25.48110947 15.19508283 43.3812456 15 64 C13.68 63.67 12.36 63.34 11 63 C11.01160156 62.23558594 11.02320313 61.47117187 11.03515625 60.68359375 C11.19897768 41.23564978 8.35766683 24.90953033 1 7 C0.67 6.67 0.34 6.34 0 6 C-0.04080783 4.00041636 -0.04254356 1.99954746 0 0 Z " fill="#190801" transform="translate(573,231)"/>
<path d="M0 0 C0.66 0.99 1.32 1.98 2 3 C2.70125 3.99 3.4025 4.98 4.125 6 C6 9 6 9 6 12 C6.66 12.33 7.32 12.66 8 13 C8 16.3 8 19.6 8 23 C7.34 23.33 6.68 23.66 6 24 C6 25.32 6 26.64 6 28 C5.38125 28.2475 4.7625 28.495 4.125 28.75 C1.5927804 30.23954094 1.19281342 31.37581048 0 34 C-2.55742677 37.49963663 -5.92372608 38.00015923 -10 39 C-10.33 40.32 -10.66 41.64 -11 43 C-12.65 42.34 -14.3 41.68 -16 41 C-10.15699227 33.89363925 -3.68747744 26.12498496 4 21 C3.34674667 17.96065293 2.30175961 15.41219705 0.9375 12.625 C-0.75042821 8.91278107 -1.50406284 6.13331531 -1 2 C-0.67 1.34 -0.34 0.68 0 0 Z " fill="#160903" transform="translate(139,139)"/>
<path d="M0 0 C5.22606997 2.17752916 7.88924558 6.49956148 11 11 C10.67 11.66 10.34 12.32 10 13 C9.34 13 8.68 13 8 13 C7.01 13.495 7.01 13.495 6 14 C5.67 13.01 5.34 12.02 5 11 C4.87625 11.721875 4.7525 12.44375 4.625 13.1875 C4.0095069 15.95721894 3.11555626 18.3970354 2 21 C1.443125 20.2265625 1.443125 20.2265625 0.875 19.4375 C-4.37923346 12.52535282 -4.37923346 12.52535282 -11 7 C-10.67 6.01 -10.34 5.02 -10 4 C-9.67 4.66 -9.34 5.32 -9 6 C-8.34 6 -7.68 6 -7 6 C-7 5.34 -7 4.68 -7 4 C-5.68 4 -4.36 4 -3 4 C-2.67 3.01 -2.34 2.02 -2 1 C-1.34 0.67 -0.68 0.34 0 0 Z " fill="#2C190E" transform="translate(602,229)"/>
<path d="M0 0 C0.99 0.33 1.98 0.66 3 1 C3.309375 1.969375 3.61875 2.93875 3.9375 3.9375 C4.65404898 7.1112243 4.65404898 7.1112243 7.0625 8.125 C8.0215625 8.558125 8.0215625 8.558125 9 9 C10.0625 10.8125 10.0625 10.8125 10 13 C7.6875 15.625 7.6875 15.625 5 18 C4.34 18.66 3.68 19.32 3 20 C0.375 19.625 0.375 19.625 -2 19 C-2 18.01 -2 17.02 -2 16 C-2.928125 15.7834375 -2.928125 15.7834375 -3.875 15.5625 C-6 15 -6 15 -8 14 C-7.67 12.35 -7.34 10.7 -7 9 C-5.68 8.67 -4.36 8.34 -3 8 C-2.690625 6.865625 -2.38125 5.73125 -2.0625 4.5625 C-1 1 -1 1 0 0 Z M-1.625 9.375 C-3.21531408 10.89968321 -3.21531408 10.89968321 -3 13 C-1.62514468 14.54166642 -1.62514468 14.54166642 0 16 C0.66 16.66 1.32 17.32 2 18 C4.09506252 14.55291141 4.09506252 14.55291141 6 11 C4.68 10.67 3.36 10.34 2 10 C2 9.34 2 8.68 2 8 C-0.10031679 7.78468592 -0.10031679 7.78468592 -1.625 9.375 Z " fill="#270F02" transform="translate(484,168)"/>
<path d="M0 0 C0.99 0 1.98 0 3 0 C3.268125 0.639375 3.53625 1.27875 3.8125 1.9375 C4.88667752 4.33131686 4.88667752 4.33131686 8 5 C8 5.99 8 6.98 8 8 C6.68 8.33 5.36 8.66 4 9 C3.34 11.31 2.68 13.62 2 16 C1.34 16 0.68 16 0 16 C-0.4125 15.05125 -0.825 14.1025 -1.25 13.125 C-3.0040131 9.99283376 -3.70851757 9.13499394 -7 8 C-6.67 7.01 -6.34 6.02 -6 5 C-5.01 4.67 -4.02 4.34 -3 4 C-2.505 3.319375 -2.01 2.63875 -1.5 1.9375 C-1.005 1.298125 -0.51 0.65875 0 0 Z " fill="#D8CFC5" transform="translate(343,184)"/>
<path d="M0 0 C3.96842901 1.32280967 5.35063345 2.73373524 7.25 6.4375 C8.09268988 9.31669043 8.26509503 10.30113061 7 13 C4.625 15.75 4.625 15.75 2 18 C1.01 18 0.02 18 -1 18 C-1.28875 17.195625 -1.5775 16.39125 -1.875 15.5625 C-2.73262568 12.8673532 -2.73262568 12.8673532 -5 12 C-4.67 11.01 -4.34 10.02 -4 9 C-4.99 9 -5.98 9 -7 9 C-7 8.34 -7 7.68 -7 7 C-6.38125 6.9175 -5.7625 6.835 -5.125 6.75 C-2.83911206 6.19416524 -2.83911206 6.19416524 -1.8125 4.0625 C-1.544375 3.381875 -1.27625 2.70125 -1 2 C-0.67 1.34 -0.34 0.68 0 0 Z M0 6 C-0.66 7.32 -1.32 8.64 -2 10 C-1.01 11.32 -0.02 12.64 1 14 C1.99 13.01 2.98 12.02 4 11 C3.34 9.35 2.68 7.7 2 6 C1.34 6 0.68 6 0 6 Z " fill="#220E04" transform="translate(486,217)"/>
<path d="M0 0 C0.66 0.99 1.32 1.98 2 3 C1.38125 3.2475 0.7625 3.495 0.125 3.75 C-2.4072196 5.23954094 -2.80718658 6.37581048 -4 9 C-6.55742677 12.49963663 -9.92372608 13.00015923 -14 14 C-14.33 15.32 -14.66 16.64 -15 18 C-17.475 17.01 -17.475 17.01 -20 16 C-15.88380164 11.08064098 -11.59589638 6.47352044 -7 2 C-6.34 2.33 -5.68 2.66 -5 3 C-4.01 2.34 -3.02 1.68 -2 1 C-1.34 0.67 -0.68 0.34 0 0 Z " fill="#27170C" transform="translate(143,164)"/>
<path d="M0 0 C0.33 0 0.66 0 1 0 C1.22151549 1.79008467 1.42682213 3.58218162 1.625 5.375 C1.79902344 6.87160156 1.79902344 6.87160156 1.9765625 8.3984375 C1.98429687 9.25695312 1.99203125 10.11546875 2 11 C-0.52480693 13.52480693 -2.13823034 13.55738633 -5.625 14.125 C-6.62789063 14.29257812 -7.63078125 14.46015625 -8.6640625 14.6328125 C-9.43492187 14.75398438 -10.20578125 14.87515625 -11 15 C-11.33 15.99 -11.66 16.98 -12 18 C-13.98753368 19.4049807 -16.06224191 20.53467764 -18.1875 21.71875 C-20.31338935 22.95327565 -20.31338935 22.95327565 -21 26 C-21.99 26 -22.98 26 -24 26 C-22.71480435 23.13302508 -21.42870746 21.02392288 -19 19 C-18.34 19 -17.68 19 -17 19 C-17 18.34 -17 17.68 -17 17 C-15.68 16.67 -14.36 16.34 -13 16 C-13.33 15.01 -13.66 14.02 -14 13 C-10.88034343 11.36589418 -8.21201922 10.04485022 -4.75 9.3125 C-1.88948778 8.31762763 -1.88948778 8.31762763 -1.1796875 6.09765625 C-0.678411 4.08902014 -0.3296495 2.04382689 0 0 Z " fill="#100201" transform="translate(358,406)"/>
<path d="M0 0 C3.1328125 -0.38818359 3.1328125 -0.38818359 7.125 -0.3984375 C7.8277002 -0.40130768 8.53040039 -0.40417786 9.25439453 -0.40713501 C10.74056809 -0.40917714 12.22676843 -0.40363678 13.71289062 -0.39111328 C15.99149508 -0.37505992 18.2683259 -0.39095499 20.546875 -0.41015625 C21.98958726 -0.40817384 23.43229841 -0.40433021 24.875 -0.3984375 C26.19242187 -0.39505371 27.50984375 -0.39166992 28.8671875 -0.38818359 C30.41792969 -0.19603271 30.41792969 -0.19603271 32 0 C32.66 0.99 33.32 1.98 34 3 C29.83766921 3.1685572 25.67512587 3.32900921 21.51220703 3.48217773 C20.09806049 3.53532535 18.68399324 3.59063076 17.27001953 3.64819336 C15.22966607 3.73087153 13.18914706 3.80561177 11.1484375 3.87890625 C9.92302246 3.9260376 8.69760742 3.97316895 7.43505859 4.02172852 C4.1660819 4.00105055 1.20061501 3.63626684 -2 3 C-1.34 2.01 -0.68 1.02 0 0 Z " fill="#1B0800" transform="translate(344,444)"/>
<path d="M0 0 C1.24716797 0.00644531 2.49433594 0.01289063 3.77929688 0.01953125 C5.07287109 0.03628906 6.36644531 0.05304688 7.69921875 0.0703125 C9.01212891 0.07933594 10.32503906 0.08835938 11.67773438 0.09765625 C14.91424788 0.12119453 18.15039024 0.1540773 21.38671875 0.1953125 C21.38671875 1.1853125 21.38671875 2.1753125 21.38671875 3.1953125 C5.05171875 3.6903125 5.05171875 3.6903125 -11.61328125 4.1953125 C-11.61328125 3.5353125 -11.61328125 2.8753125 -11.61328125 2.1953125 C-7.59793057 0.29451586 -4.42331534 -0.04039557 0 0 Z " fill="#200803" transform="translate(181.61328125,141.8046875)"/>
<path d="M0 0 C-0.33 0.99 -0.66 1.98 -1 3 C-1.66 3 -2.32 3 -3 3 C-3.33 4.65 -3.66 6.3 -4 8 C-5.65 8 -7.3 8 -9 8 C-9 8.99 -9 9.98 -9 11 C-10.65 11.33 -12.3 11.66 -14 12 C-13.625 9.0625 -13.625 9.0625 -13 6 C-12.34 5.67 -11.68 5.34 -11 5 C-15.95 4.67 -20.9 4.34 -26 4 C-25.67 3.34 -25.34 2.68 -25 2 C-23.98679687 2.02320313 -22.97359375 2.04640625 -21.9296875 2.0703125 C-20.57813242 2.0890841 -19.22656931 2.1072828 -17.875 2.125 C-16.87726563 2.15013672 -16.87726563 2.15013672 -15.859375 2.17578125 C-10.22299829 2.23103985 -5.52597722 0 0 0 Z " fill="#31231A" transform="translate(140,233)"/>
<path d="M0 0 C0.66 0 1.32 0 2 0 C6 6.5 6 6.5 6 11 C4.25 12.8125 4.25 12.8125 2 14 C-1.00388632 13.73495121 -1.83304275 13.16695725 -4 11 C-3.70906026 6.63590392 -2.59100393 3.52376535 0 0 Z " fill="#B0A29A" transform="translate(411,202)"/>
<path d="M0 0 C0.99 0 1.98 0 3 0 C3.33 1.65 3.66 3.3 4 5 C4.66 5 5.32 5 6 5 C6.33 6.65 6.66 8.3 7 10 C5.25 11.5625 5.25 11.5625 3 13 C0.01948452 12.72057667 -2.38065846 11.40321868 -5 10 C-3.33333333 6.66666667 -1.66666667 3.33333333 0 0 Z " fill="#D3C9C1" transform="translate(433,179)"/>
<path d="M0 0 C0.33 0 0.66 0 1 0 C1.66298229 6.36462999 -0.03178899 10.02895305 -4 15 C-8.3 19 -8.3 19 -11 19 C-11 19.99 -11 20.98 -11 22 C-10.360625 22.28875 -9.72125 22.5775 -9.0625 22.875 C-7 24 -7 24 -6 26 C-7.65 26.33 -9.3 26.66 -11 27 C-14.15905744 21.6539028 -14.15905744 21.6539028 -13.4375 18.6875 C-11.71331532 16.66345712 -10.59642796 16.34619039 -8 16 C-8 15.34 -8 14.68 -8 14 C-7.0409375 13.1646875 -7.0409375 13.1646875 -6.0625 12.3125 C-3.38084069 9.30579108 -3.30333855 6.94340119 -3 3 C-2.34 3 -1.68 3 -1 3 C-0.67 2.01 -0.34 1.02 0 0 Z " fill="#201917" transform="translate(111,205)"/>
<path d="M0 0 C3.375 -0.1875 3.375 -0.1875 7 0 C9.30019361 3.45029042 9.43132515 4.94554358 9 9 C5.53076119 11.31282587 4.07794425 11.42478586 0 11 C-1.9375 9.875 -1.9375 9.875 -3 8 C-2.6875 4.8125 -2.6875 4.8125 -2 2 C-1.34 2 -0.68 2 0 2 C0 1.34 0 0.68 0 0 Z M1 3 C0.67 4.32 0.34 5.64 0 7 C1.98 7.99 1.98 7.99 4 9 C4.66 7.68 5.32 6.36 6 5 C5.34 4.34 4.68 3.68 4 3 C3.01 3 2.02 3 1 3 Z " fill="#250E02" transform="translate(553,290)"/>
<path d="M0 0 C0 0.66 0 1.32 0 2 C-1.98 2.99 -1.98 2.99 -4 4 C-3.835 4.61875 -3.67 5.2375 -3.5 5.875 C-3 8 -3 8 -3 10 C-2.01 10.33 -1.02 10.66 0 11 C-0.33 12.32 -0.66 13.64 -1 15 C-1.60328125 14.59007812 -2.2065625 14.18015625 -2.828125 13.7578125 C-3.62734375 13.21898437 -4.4265625 12.68015625 -5.25 12.125 C-6.03890625 11.59132812 -6.8278125 11.05765625 -7.640625 10.5078125 C-9.71555692 9.18177985 -11.77614972 8.05071825 -14 7 C-10.55528408 2.83763493 -5.51309408 0 0 0 Z " fill="#E2E0DF" transform="translate(112,189)"/>
<path d="M0 0 C1.39935013 2.79870027 1.25265405 4.90498792 1 8 C-0.66273336 10.53785617 -1.73355011 10.9318384 -4.6875 11.6875 C-5.8321875 11.8421875 -5.8321875 11.8421875 -7 12 C-9.21663014 9.59865068 -9.96903694 8.21674143 -10.4375 4.9375 C-10 2 -10 2 -8.375 0.0625 C-5.19469629 -1.36026745 -3.30234829 -0.95401173 0 0 Z M-7 2 C-8.01111093 5.04913228 -8.01111093 5.04913228 -7 8 C-5.35 7.67 -3.7 7.34 -2 7 C-2 5.68 -2 4.36 -2 3 C-3.65 2.67 -5.3 2.34 -7 2 Z " fill="#240E03" transform="translate(504,320)"/>
<path d="M0 0 C8.25 0.66 16.5 1.32 25 2 C25.33 2.99 25.66 3.98 26 5 C17.26860536 5.11624638 8.68873018 4.89115181 0 4 C0 2.68 0 1.36 0 0 Z " fill="#120301" transform="translate(503,444)"/>
<path d="M0 0 C2.625 0.375 2.625 0.375 5 1 C5.33 1.99 5.66 2.98 6 4 C5.34 4.66 4.68 5.32 4 6 C4 5.34 4 4.68 4 4 C3.01 4.495 3.01 4.495 2 5 C1.84850702 8.62885324 1.84850702 8.62885324 3 12 C3.5364244 14.01159151 4.00550253 16.02594051 4.4375 18.0625 C4.98102599 20.29731913 4.98102599 20.29731913 7 23 C6.34 23 5.68 23 5 23 C5.33 24.98 5.66 26.96 6 29 C1.10446432 21.65669648 -2.72245787 10.9658874 -2 2 C-1.34 1.34 -0.68 0.68 0 0 Z " fill="#080403" transform="translate(90,198)"/>
<path d="M0 0 C0.33 1.32 0.66 2.64 1 4 C1.66 4 2.32 4 3 4 C4 7 4 7 3 10 C2.34 10 1.68 10 1 10 C1 10.66 1 11.32 1 12 C0.01 12 -0.98 12 -2 12 C-2.33 12.66 -2.66 13.32 -3 14 C-5.40814077 10.48812804 -6.36629408 8.27343092 -6 4 C-4.7934375 3.566875 -4.7934375 3.566875 -3.5625 3.125 C-0.8673532 2.26737432 -0.8673532 2.26737432 0 0 Z " fill="#271002" transform="translate(521,185)"/>
<path d="M0 0 C10.89 0 21.78 0 33 0 C33 0.99 33 1.98 33 3 C26.73 3 20.46 3 14 3 C14 2.67 14 2.34 14 2 C7.07 1.505 7.07 1.505 0 1 C0 0.67 0 0.34 0 0 Z " fill="#1E0E07" transform="translate(512,445)"/>
<path d="M0 0 C0.66 0 1.32 0 2 0 C2.33 1.98 2.66 3.96 3 6 C3.99 6 4.98 6 6 6 C6.33 4.02 6.66 2.04 7 0 C7.99 0.33 8.98 0.66 10 1 C10.1875 4.375 10.1875 4.375 10 8 C6.54970958 10.30019361 5.05445642 10.43132515 1 10 C-1.56687367 6.1496895 -0.83288724 4.41430237 0 0 Z " fill="#1A0801" transform="translate(531,218)"/>
<path d="M0 0 C2.86724686 0.57344937 3.8614515 0.8614515 6 3 C6 3.33 6 3.66 6 4 C6.69867188 4.15855469 7.39734375 4.31710937 8.1171875 4.48046875 C15.6432247 6.40994854 15.6432247 6.40994854 17.625 9.6875 C17.74875 10.450625 17.8725 11.21375 18 12 C15.525 11.505 15.525 11.505 13 11 C13 10.34 13 9.68 13 9 C12.32453125 8.90203125 11.6490625 8.8040625 10.953125 8.703125 C2.09314587 7.21792619 2.09314587 7.21792619 -1 3 C-0.67 2.01 -0.34 1.02 0 0 Z " fill="#221106" transform="translate(492,269)"/>
<path d="M0 0 C3.375 -0.125 3.375 -0.125 7 0 C7.66 0.66 8.32 1.32 9 2 C8.8125 4.5 8.8125 4.5 8 7 C5 9 5 9 2 9 C2 8.34 2 7.68 2 7 C1.34 7 0.68 7 0 7 C0 4.69 0 2.38 0 0 Z M3 3 C3 3.66 3 4.32 3 5 C3.66 5 4.32 5 5 5 C5 4.34 5 3.68 5 3 C4.34 3 3.68 3 3 3 Z " fill="#250D03" transform="translate(531,317)"/>
<path d="M0 0 C0.61875 0.639375 1.2375 1.27875 1.875 1.9375 C3.82597612 4.03883584 3.82597612 4.03883584 6 5 C6.9375 6.75 6.9375 6.75 7 9 C4.6875 11.625 4.6875 11.625 2 14 C1.34 14.66 0.68 15.32 0 16 C-0.6875 13.6875 -0.6875 13.6875 -1 11 C0.4375 9.1875 0.4375 9.1875 2 8 C1.01 7.34 0.02 6.68 -1 6 C-1 5.34 -1 4.68 -1 4 C-1.66 4 -2.32 4 -3 4 C-3 3.01 -3 2.02 -3 1 C-2.01 0.67 -1.02 0.34 0 0 Z " fill="#1C0800" transform="translate(487,172)"/>
<path d="M0 0 C3.92513415 5.88770122 5.24318777 13.0373275 6 20 C6.66 19.67 7.32 19.34 8 19 C7.8125 21.75 7.8125 21.75 7 25 C4.44921875 27.203125 4.44921875 27.203125 2 29 C2.03480469 27.04707031 2.03480469 27.04707031 2.0703125 25.0546875 C2.08907942 23.32813076 2.10727863 21.60156779 2.125 19.875 C2.14175781 19.0190625 2.15851563 18.163125 2.17578125 17.28125 C2.21346373 12.38252779 1.74717465 8.63620361 0 4 C0 2.68 0 1.36 0 0 Z " fill="#665951" transform="translate(144,195)"/>
<path d="M0 0 C1.25 6.625 1.25 6.625 -1 10 C-5.875 9.125 -5.875 9.125 -7 8 C-7.04092937 5.66702567 -7.04241723 3.33294775 -7 1 C-4 0 -4 0 0 0 Z M-4 3 C-4 3.99 -4 4.98 -4 6 C-3.01 5.67 -2.02 5.34 -1 5 C-1.33 4.34 -1.66 3.68 -2 3 C-2.66 3 -3.32 3 -4 3 Z " fill="#251103" transform="translate(504,204)"/>
<path d="M0 0 C0.66 0 1.32 0 2 0 C1.25 2.4375 1.25 2.4375 0 5 C-2.0625 5.625 -2.0625 5.625 -4 6 C-4.33 6.99 -4.66 7.98 -5 9 C-10.95247989 12.27619741 -17.44583499 12.3876939 -24.0625 12.1875 C-24.92810547 12.17396484 -25.79371094 12.16042969 -26.68554688 12.14648438 C-28.79064174 12.1115933 -30.89540974 12.05780665 -33 12 C-33 11.67 -33 11.34 -33 11 C-31.19015625 10.94392578 -31.19015625 10.94392578 -29.34375 10.88671875 C-27.72913822 10.82100781 -26.11455622 10.75456229 -24.5 10.6875 C-23.31277344 10.65366211 -23.31277344 10.65366211 -22.1015625 10.61914062 C-16.50004134 10.36661303 -12.10504216 9.37019815 -7 7 C-5.41622598 4.46955394 -5.41622598 4.46955394 -5 2 C-4.01 2.66 -3.02 3.32 -2 4 C-1.34 2.68 -0.68 1.36 0 0 Z " fill="#2A160E" transform="translate(401,432)"/>
<path d="M0 0 C2 0.0625 2 0.0625 4 1 C5.375 3.375 5.375 3.375 6 6 C5.01 7.485 5.01 7.485 4 9 C-0.875 8.125 -0.875 8.125 -2 7 C-2.1875 4.5625 -2.1875 4.5625 -2 2 C-1.34 1.34 -0.68 0.68 0 0 Z " fill="#2C1404" transform="translate(561,263)"/>
<path d="M0 0 C2.6855594 2.6855594 3.06049974 5.37621328 4 9 C4.99 8.67 5.98 8.34 7 8 C6.67 9.98 6.34 11.96 6 14 C4.34385343 14.38218767 2.67542976 14.71395102 1 15 C-1.25285492 12.74714508 -0.83957716 8.04803397 -1 5 C-0.5625 1.9375 -0.5625 1.9375 0 0 Z " fill="#230D04" transform="translate(451,281)"/>
<path d="M0 0 C-3.22302975 4.83454463 -6.82620318 6.75216109 -12 9 C-12 6 -12 6 -11 4 C-10.34 4 -9.68 4 -9 4 C-8.731875 3.360625 -8.46375 2.72125 -8.1875 2.0625 C-6.08556352 -1.58823178 -3.58713791 -1.1132497 0 0 Z " fill="#EEEAE5" transform="translate(145,226)"/>
<path d="M0 0 C-0.33 0.66 -0.66 1.32 -1 2 C-3.31 1.67 -5.62 1.34 -8 1 C-8 1.99 -8 2.98 -8 4 C-12.17737474 5.59138085 -15.53160785 6.21278058 -20 6 C-18 3 -18 3 -15.8359375 2.48828125 C-15.02382813 2.43027344 -14.21171875 2.37226563 -13.375 2.3125 C-12.55773437 2.24675781 -11.74046875 2.18101562 -10.8984375 2.11328125 C-10.27195312 2.07589844 -9.64546875 2.03851563 -9 2 C-9 1.34 -9 0.68 -9 0 C-5.67465243 -1.10844919 -3.37817425 -0.84454356 0 0 Z " fill="#1D0902" transform="translate(460,344)"/>
<path d="M0 0 C1.32 0.33 2.64 0.66 4 1 C3.67 1.99 3.34 2.98 3 4 C2.34 4 1.68 4 1 4 C0.89042969 4.68707031 0.78085937 5.37414062 0.66796875 6.08203125 C0.50941406 6.98308594 0.35085938 7.88414062 0.1875 8.8125 C0.03667969 9.70582031 -0.11414063 10.59914063 -0.26953125 11.51953125 C-1.05395393 14.18321256 -1.88627799 15.25690322 -4 17 C-3.58411954 10.80481527 -2.39748106 5.73310689 0 0 Z " fill="#220F04" transform="translate(517,246)"/>
<path d="M0 0 C5.75 1.75 5.75 1.75 8 4 C7.67 4.66 7.34 5.32 7 6 C6.34 6 5.68 6 5 6 C5.33 6.99 5.66 7.98 6 9 C3.08482708 7.92598892 1.22189824 7.22189824 -1 5 C-0.625 2.375 -0.625 2.375 0 0 Z " fill="#201612" transform="translate(105,231)"/>
<path d="M0 0 C-0.66 0.66 -1.32 1.32 -2 2 C-3.32 2 -4.64 2 -6 2 C-6 2.66 -6 3.32 -6 4 C-9 6 -9 6 -12 6 C-15.27773504 6.75150023 -15.27773504 6.75150023 -17 10 C-17.66 10 -18.32 10 -19 10 C-17.48660052 5.76248146 -14.81008791 4.19812764 -11 2 C-7.17942872 0.44058315 -4.1219243 -0.24246614 0 0 Z " fill="#1B0F0A" transform="translate(520,420)"/>
<path d="M0 0 C0.99 0 1.98 0 3 0 C3.33 1.98 3.66 3.96 4 6 C2.35 6.33 0.7 6.66 -1 7 C-1 8.32 -1 9.64 -1 11 C-2.32 10.67 -3.64 10.34 -5 10 C-3.33333333 6.66666667 -1.66666667 3.33333333 0 0 Z " fill="#C8BBB0" transform="translate(433,179)"/>
<path d="M0 0 C2.125 0.375 2.125 0.375 4 1 C2.54545455 6.45454545 2.54545455 6.45454545 0.25 8.75 C-2.4143357 10.2301865 -5.08198501 11.13785921 -8 12 C-7.67 10.68 -7.34 9.36 -7 8 C-5.02 7.67 -3.04 7.34 -1 7 C-0.67 6.01 -0.34 5.02 0 4 C-0.66 3.34 -1.32 2.68 -2 2 C-1.34 1.34 -0.68 0.68 0 0 Z " fill="#210F06" transform="translate(601,293)"/>
<path d="M0 0 C3 2 3 2 4 4 C-5.41002278 7.62870159 -5.41002278 7.62870159 -10 6 C-8.3125 3.9375 -8.3125 3.9375 -6 2 C-3.25 2.25 -3.25 2.25 -1 3 C-0.67 2.01 -0.34 1.02 0 0 Z " fill="#3B342E" transform="translate(128,178)"/>
<path d="M0 0 C0.33 0.66 0.66 1.32 1 2 C1.99 2.33 2.98 2.66 4 3 C4.08090971 4.62418745 4.13914995 6.24951745 4.1875 7.875 C4.22230469 8.77992188 4.25710937 9.68484375 4.29296875 10.6171875 C4.19628906 11.40351563 4.09960938 12.18984375 4 13 C3.01 13.66 2.02 14.32 1 15 C0.63911385 12.68853911 0.28645809 10.37579171 -0.0625 8.0625 C-0.25972656 6.77472656 -0.45695313 5.48695313 -0.66015625 4.16015625 C-0.82837891 2.59587891 -0.82837891 2.59587891 -1 1 C-0.67 0.67 -0.34 0.34 0 0 Z " fill="#2C1B10" transform="translate(148,201)"/>
<path d="M0 0 C2.7839183 1.39195915 2.97898997 3.15575779 4 6 C5.98 5.67 7.96 5.34 10 5 C9.34 6.32 8.68 7.64 8 9 C2.6179402 9.35880399 2.6179402 9.35880399 0.0625 7.875 C-1.52513015 5.07329973 -0.74070176 3.03014356 0 0 Z " fill="#1C0600" transform="translate(551,292)"/>
<path d="M0 0 C1.65 0 3.3 0 5 0 C5 1.32 5 2.64 5 4 C1.3321148 5.96189209 -1.87248551 7.39301257 -6 8 C-5.34 7.67 -4.68 7.34 -4 7 C-4 5.68 -4 4.36 -4 3 C-3.01 3 -2.02 3 -1 3 C-0.67 2.01 -0.34 1.02 0 0 Z " fill="#2F1D11" transform="translate(526,345)"/>
<path d="M0 0 C1.91731918 0.11455681 3.8338675 0.24206258 5.75 0.375 C7.35101563 0.47941406 7.35101563 0.47941406 8.984375 0.5859375 C11.80206432 0.9728223 13.5830366 1.55686166 16 3 C16 3.66 16 4.32 16 5 C13.66574212 4.6732039 11.33257494 4.33859959 9 4 C7.9275 3.87625 6.855 3.7525 5.75 3.625 C2.74670317 2.94243254 2.00557543 2.20613297 0 0 Z " fill="#1F0C03" transform="translate(171,259)"/>
<path d="M0 0 C0.66 0 1.32 0 2 0 C2.2475 0.804375 2.495 1.60875 2.75 2.4375 C3.7241691 5.13654257 3.7241691 5.13654257 6 5.875 C8.0732281 6.17260908 8.0732281 6.17260908 10 5 C9.67 6.65 9.34 8.3 9 10 C7.68 10 6.36 10 5 10 C4.34 9.01 3.68 8.02 3 7 C1.68 7 0.36 7 -1 7 C-1.04254356 5.00045254 -1.04080783 2.99958364 -1 1 C-0.67 0.67 -0.34 0.34 0 0 Z " fill="#5B483F" transform="translate(405,209)"/>
<path d="M0 0 C0.4125 0.61875 0.825 1.2375 1.25 1.875 C3.05573879 4.06768281 4.4090534 4.92788417 7 6 C7 7.98 7 9.96 7 12 C6.67 11.01 6.34 10.02 6 9 C3.98491642 8.26676204 3.98491642 8.26676204 2 8 C1.67 6.68 1.34 5.36 1 4 C-0.32 4.33 -1.64 4.66 -3 5 C-2.67 4.01 -2.34 3.02 -2 2 C-1.34 2 -0.68 2 0 2 C0 1.34 0 0.68 0 0 Z " fill="#4F3C2F" transform="translate(345,180)"/>
<path d="M0 0 C2.475 0.99 2.475 0.99 5 2 C3.375 4.9375 3.375 4.9375 1 8 C-2.25 8.875 -2.25 8.875 -5 9 C-4.67 7.68 -4.34 6.36 -4 5 C-4 5.66 -4 6.32 -4 7 C-3.34 7 -2.68 7 -2 7 C-1.34 4.69 -0.68 2.38 0 0 Z " fill="#4C372A" transform="translate(347,193)"/>
<path d="M0 0 C-0.14076315 1.9587043 -0.2877676 3.91696093 -0.4375 5.875 C-0.51871094 6.96554687 -0.59992187 8.05609375 -0.68359375 9.1796875 C-1 12 -1 12 -2 14 C-2.66 14 -3.32 14 -4 14 C-3.67 11.36 -3.34 8.72 -3 6 C-3.99 5.34 -4.98 4.68 -6 4 C-2.25 0 -2.25 0 0 0 Z " fill="#1D120D" transform="translate(580,338)"/>
<path d="M0 0 C0.66 0.99 1.32 1.98 2 3 C1.38125 3.2475 0.7625 3.495 0.125 3.75 C-2.4072196 5.23954094 -2.80718658 6.37581048 -4 9 C-5.625 10.75 -5.625 10.75 -7 12 C-6.7589852 5.85412262 -6.7589852 5.85412262 -4.59765625 3.421875 C-3.11953029 2.21155069 -1.56352047 1.09779097 0 0 Z " fill="#2C1A0F" transform="translate(143,164)"/>
<path d="M0 0 C-0.66 1.98 -1.32 3.96 -2 6 C-2.763125 5.95875 -3.52625 5.9175 -4.3125 5.875 C-7.22718416 5.77919176 -7.22718416 5.77919176 -10 8 C-8.18341255 3.37595922 -5.13109685 0 0 0 Z " fill="#2C1910" transform="translate(219,130)"/>
<path d="M0 0 C0.33 3.3 0.66 6.6 1 10 C0.34 10 -0.32 10 -1 10 C-1.33 11.32 -1.66 12.64 -2 14 C-2.66 13.67 -3.32 13.34 -4 13 C-3.88652381 11.02013918 -3.7589065 9.04108402 -3.625 7.0625 C-3.55539062 5.96035156 -3.48578125 4.85820312 -3.4140625 3.72265625 C-3.27742187 2.82417969 -3.14078125 1.92570312 -3 1 C-1 0 -1 0 0 0 Z " fill="#170804" transform="translate(606,256)"/>
<path d="M0 0 C0.28875 0.61875 0.5775 1.2375 0.875 1.875 C1.93720042 4.13325765 1.93720042 4.13325765 4 6 C3.01 6.66 2.02 7.32 1 8 C0.27617533 10.05925139 0.27617533 10.05925139 0 12 C-0.99 12 -1.98 12 -3 12 C-3 8.98509443 -2.48047265 7.13135886 -1.5 4.3125 C-1.2215625 3.50425781 -0.943125 2.69601563 -0.65625 1.86328125 C-0.4396875 1.24839844 -0.223125 0.63351563 0 0 Z " fill="#2C1A10" transform="translate(148,220)"/>
<path d="M0 0 C0.66 0.99 1.32 1.98 2 3 C0.6875 4.5 0.6875 4.5 -1 6 C-1.99 6 -2.98 6 -4 6 C-4.33 7.32 -4.66 8.64 -5 10 C-5.99 9.67 -6.98 9.34 -8 9 C-8 8.01 -8 7.02 -8 6 C-6.04690112 4.59886384 -4.04291182 3.26660533 -2 2 C-1.34 1.34 -0.68 0.68 0 0 Z " fill="#D7D4D2" transform="translate(108,218)"/>
<path d="M0 0 C0.33 0 0.66 0 1 0 C1.49940808 6.11774896 0.24900602 9.02495953 -3 14 C-3.66 13.67 -4.32 13.34 -5 13 C-4.71872579 11.51882199 -4.42466268 10.04006751 -4.125 8.5625 C-3.96257812 7.73878906 -3.80015625 6.91507813 -3.6328125 6.06640625 C-3.42398438 5.38449219 -3.21515625 4.70257813 -3 4 C-2.34 3.67 -1.68 3.34 -1 3 C-0.67 2.01 -0.34 1.02 0 0 Z " fill="#2B2323" transform="translate(111,205)"/>
<path d="M0 0 C1.60725635 3.21451269 1.05748185 6.43612536 1 10 C4.3863251 11.50930183 4.3863251 11.50930183 8 12 C8 12.66 8 13.32 8 14 C8.99 14.33 9.98 14.66 11 15 C7.14850705 15.30207788 4.59016728 15.27624851 1.0625 13.625 C-1.71571359 10.08909179 -1.44017679 7.52464408 -1.2734375 3.14453125 C-1 1 -1 1 0 0 Z " fill="#C4BBB4" transform="translate(161,182)"/>
<path d="M0 0 C0.33 1.65 0.66 3.3 1 5 C-1.3125 5.625 -1.3125 5.625 -4 6 C-4.99 5.34 -5.98 4.68 -7 4 C-6.34 4 -5.68 4 -5 4 C-5.33 3.01 -5.66 2.02 -6 1 C-3 0 -3 0 0 0 Z " fill="#2A1203" transform="translate(545,271)"/>
<path d="M0 0 C4.29 0.99 8.58 1.98 13 3 C8.78370866 5.10814567 6.60209225 5.17700355 2 5 C1.34 3.35 0.68 1.7 0 0 Z " fill="#2B1A0F" transform="translate(577,218)"/>
<path d="M0 0 C0 0.99 0 1.98 0 3 C-1.71484375 4.28125 -1.71484375 4.28125 -3.9375 5.5 C-7.45773724 7.34120744 -7.45773724 7.34120744 -9 11 C-9.99 11 -10.98 11 -12 11 C-10.71480435 8.13302508 -9.42870746 6.02392288 -7 4 C-6.34 4 -5.68 4 -5 4 C-5 3.34 -5 2.68 -5 2 C-3.35 1.34 -1.7 0.68 0 0 Z " fill="#21130C" transform="translate(346,421)"/>
<path d="M0 0 C5.20540698 0.96396425 9.59913433 1.87680501 14 5 C10.16652698 6.27782434 7.91272241 5.96101954 4 5 C1.5625 2.4375 1.5625 2.4375 0 0 Z " fill="#110504" transform="translate(108,240)"/>
<path d="M0 0 C5.95703125 -0.390625 5.95703125 -0.390625 8 0 C8.99 1.32 9.98 2.64 11 4 C7.37 3.67 3.74 3.34 0 3 C0 2.01 0 1.02 0 0 Z " fill="#210E04" transform="translate(573,231)"/>
<path d="M0 0 C0.66 1.32 1.32 2.64 2 4 C-0.25 6.5 -0.25 6.5 -3 9 C-4.32 9 -5.64 9 -7 9 C-7 8.34 -7 7.68 -7 7 C-6.38125 6.9175 -5.7625 6.835 -5.125 6.75 C-2.83911206 6.19416524 -2.83911206 6.19416524 -1.8125 4.0625 C-1.544375 3.381875 -1.27625 2.70125 -1 2 C-0.67 1.34 -0.34 0.68 0 0 Z " fill="#2C1708" transform="translate(486,217)"/>
<path d="M0 0 C1.32 0 2.64 0 4 0 C4 1.98 4 3.96 4 6 C2.35 5.67 0.7 5.34 -1 5 C-0.67 3.35 -0.34 1.7 0 0 Z " fill="#F0EBE5" transform="translate(410,208)"/>
<path d="M0 0 C-1.27192363 2.54384726 -2.19948469 2.69368156 -4.8125 3.6875 C-5.49957031 3.95949219 -6.18664062 4.23148438 -6.89453125 4.51171875 C-9.29376496 5.06812731 -10.6894364 4.77364938 -13 4 C-8.62340682 -0.37659318 -5.88808394 -0.39919213 0 0 Z " fill="#B8B4B2" transform="translate(125,184)"/>
<path d="M0 0 C0 0.66 0 1.32 0 2 C-1.63064764 3.05771739 -3.30280873 4.05273046 -5 5 C-8.24849977 6.72226496 -8.24849977 6.72226496 -9 10 C-9.66 9.67 -10.32 9.34 -11 9 C-9.99056513 5.36603447 -9.08394242 4.06608233 -6.0625 1.6875 C-3 0 -3 0 0 0 Z " fill="#27170E" transform="translate(153,130)"/>
<path d="M0 0 C0.33 0.66 0.66 1.32 1 2 C1.99 2.33 2.98 2.66 4 3 C5.1875 5.5625 5.1875 5.5625 6 8 C5.01 8.33 4.02 8.66 3 9 C2.67 7.68 2.34 6.36 2 5 C1.01 5 0.02 5 -1 5 C-0.67 3.35 -0.34 1.7 0 0 Z " fill="#1F0C03" transform="translate(480,179)"/>
<path d="M0 0 C3.375 -0.125 3.375 -0.125 7 0 C7.66 0.66 8.32 1.32 9 2 C8.625 4.125 8.625 4.125 8 6 C7.67 5.34 7.34 4.68 7 4 C4.6859378 3.26924352 2.35171131 2.59861742 0 2 C0 1.34 0 0.68 0 0 Z " fill="#2E1707" transform="translate(531,317)"/>
<path d="M0 0 C0.33 0 0.66 0 1 0 C1.33 3.96 1.66 7.92 2 12 C0.68 11.67 -0.64 11.34 -2 11 C-2.25 3.375 -2.25 3.375 0 0 Z " fill="#240D04" transform="translate(586,283)"/>
<path d="M0 0 C3 1 3 1 5 4 C5 5.32 5 6.64 5 8 C4.01 8.33 3.02 8.66 2 9 C2 7.02 2 5.04 2 3 C0.68 2.67 -0.64 2.34 -2 2 C-1.34 1.34 -0.68 0.68 0 0 Z " fill="#D0C6BD" transform="translate(412,205)"/>
<path d="M0 0 C0.33 0 0.66 0 1 0 C1 2.64 1 5.28 1 8 C0.67 7.34 0.34 6.68 0 6 C-0.66 6 -1.32 6 -2 6 C-2.33 6.66 -2.66 7.32 -3 8 C-3 7.01 -3 6.02 -3 5 C-3.99 4.67 -4.98 4.34 -6 4 C-4.7934375 3.566875 -4.7934375 3.566875 -3.5625 3.125 C-0.8673532 2.26737432 -0.8673532 2.26737432 0 0 Z " fill="#321A0A" transform="translate(489,184)"/>
<path d="M0 0 C2.4375 1.25 2.4375 1.25 3.4375 4.25 C2.509375 4.085 1.58125 3.92 0.625 3.75 C-2.51871353 3.17251612 -2.51871353 3.17251612 -5.5625 3.25 C-5.2325 2.26 -4.9025 1.27 -4.5625 0.25 C-2.5625 -0.75 -2.5625 -0.75 0 0 Z " fill="#331D13" transform="translate(516.5625,163.75)"/>
<path d="M0 0 C0.66 0.33 1.32 0.66 2 1 C2.36923077 6.53846154 2.36923077 6.53846154 0.5 8.875 C-0.2425 9.431875 -0.2425 9.431875 -1 10 C-1.99 9.67 -2.98 9.34 -4 9 C-4 8.34 -4 7.68 -4 7 C-2.35 6.34 -0.7 5.68 1 5 C0.67 3.35 0.34 1.7 0 0 Z " fill="#170300" transform="translate(503,321)"/>
<path d="M0 0 C0.66 0.33 1.32 0.66 2 1 C2 1.66 2 2.32 2 3 C1.34 3 0.68 3 0 3 C0.66 4.32 1.32 5.64 2 7 C0.68 6.67 -0.64 6.34 -2 6 C-2.33 4.35 -2.66 2.7 -3 1 C-2.01 0.67 -1.02 0.34 0 0 Z " fill="#2D1605" transform="translate(432,265)"/>
<path d="M0 0 C4.21912747 0.4794463 6.79663178 1.16625119 10 4 C7.33438378 4.98726527 6.09873015 5.0275526 3.3125 4.25 C1 3 1 3 0 0 Z " fill="#190501" transform="translate(163,255)"/>
<path d="M0 0 C0 2.33333333 0 4.66666667 0 7 C0.66 7.33 1.32 7.66 2 8 C0.35 7.67 -1.3 7.34 -3 7 C-3.33 5.35 -3.66 3.7 -4 2 C-2.68 1.34 -1.36 0.68 0 0 Z " fill="#2E190D" transform="translate(584,225)"/>
<path d="M0 0 C0.33 0.99 0.66 1.98 1 3 C1.99 3 2.98 3 4 3 C4.33 2.01 4.66 1.02 5 0 C5 2.31 5 4.62 5 7 C4.01 7 3.02 7 2 7 C1.67 7.66 1.34 8.32 1 9 C0.67 6.03 0.34 3.06 0 0 Z " fill="#311907" transform="translate(517,190)"/>
<path d="M0 0 C0 3.10551666 -0.5393715 4.35261084 -2 7 C-2.99 7 -3.98 7 -5 7 C-5.66 6.34 -6.32 5.68 -7 5 C-4.87219421 2.65941363 -2.88437779 1.29299694 0 0 Z " fill="#170E0B" transform="translate(130,174)"/>
<path d="M0 0 C2 1.8125 2 1.8125 4 4 C4 4.99 4 5.98 4 7 C4.66 7.33 5.32 7.66 6 8 C5.67 8.99 5.34 9.98 5 11 C2.65808437 8.8709858 1.16445046 6.95591271 0 4 C0 2.68 0 1.36 0 0 Z " fill="#24140A" transform="translate(141,144)"/>
<path d="M0 0 C0.33 0.99 0.66 1.98 1 3 C-0.65 4.65 -2.3 6.3 -4 8 C-4.66 7.34 -5.32 6.68 -6 6 C-4 4 -2 2 0 0 Z " fill="#20140F" transform="translate(480,428)"/>
<path d="M0 0 C2.4375 0.75 2.4375 0.75 5 2 C5.8125 4.125 5.8125 4.125 6 6 C4.35 5.67 2.7 5.34 1 5 C0.67 3.35 0.34 1.7 0 0 Z " fill="#2F1A0E" transform="translate(351,384)"/>
<path d="M0 0 C2.86724686 0.57344937 3.8614515 0.8614515 6 3 C5.34 3 4.68 3 4 3 C3.67 3.99 3.34 4.98 3 6 C2.01 5.67 1.02 5.34 0 5 C-0.33 4.01 -0.66 3.02 -1 2 C-0.67 1.34 -0.34 0.68 0 0 Z " fill="#2F1808" transform="translate(492,269)"/>
<path d="M0 0 C2 2 2 2 2.1953125 4.6015625 C2.17210937 5.59929687 2.14890625 6.59703125 2.125 7.625 C2.10695313 8.62789063 2.08890625 9.63078125 2.0703125 10.6640625 C2.03550781 11.82035156 2.03550781 11.82035156 2 13 C1.01 13 0.02 13 -1 13 C-0.67 8.71 -0.34 4.42 0 0 Z " fill="#210F07" transform="translate(617,260)"/>
<path d="M0 0 C1.32 0.66 2.64 1.32 4 2 C4 2.99 4 3.98 4 5 C2.02 5.99 2.02 5.99 0 7 C-1.125 2.25 -1.125 2.25 0 0 Z " fill="#FBF8F3" transform="translate(342,187)"/>
<path d="M0 0 C0.66 0.33 1.32 0.66 2 1 C1.34 2.65 0.68 4.3 0 6 C-1.32 5.67 -2.64 5.34 -4 5 C-3 2 -3 2 0 0 Z " fill="#3E291E" transform="translate(408,203)"/>
<path d="M0 0 C0 0.33 0 0.66 0 1 C-3.63 1.66 -7.26 2.32 -11 3 C-10 0 -10 0 -7.75 -1.3125 C-4.4162184 -2.1459454 -3.00241256 -1.54409789 0 0 Z " fill="#484444" transform="translate(102,197)"/>
<path d="M0 0 C0.99 0 1.98 0 3 0 C3.66 1.65 4.32 3.3 5 5 C4.236875 4.835 3.47375 4.67 2.6875 4.5 C-0.03596236 3.90854604 -0.03596236 3.90854604 -3 4 C-1.6875 2 -1.6875 2 0 0 Z " fill="#D4CAC0" transform="translate(343,184)"/>
<path d="M0 0 C1.65 0.99 3.3 1.98 5 3 C4.34 4.32 3.68 5.64 3 7 C2.34 6.67 1.68 6.34 1 6 C1 5.34 1 4.68 1 4 C0.34 4 -0.32 4 -1 4 C-0.67 2.68 -0.34 1.36 0 0 Z " fill="#32190F" transform="translate(340,367)"/>
<path d="M0 0 C1.32 0.33 2.64 0.66 4 1 C4 2.65 4 4.3 4 6 C2.68 5.34 1.36 4.68 0 4 C-0.66 4.66 -1.32 5.32 -2 6 C-2 4.68 -2 3.36 -2 2 C-1.34 2 -0.68 2 0 2 C0 1.34 0 0.68 0 0 Z " fill="#2F1809" transform="translate(500,204)"/>
<path d="M0 0 C0.33 0.66 0.66 1.32 1 2 C-2.96 2 -6.92 2 -11 2 C-4.47540984 -1.26229508 -4.47540984 -1.26229508 0 0 Z " fill="#C6BFB9" transform="translate(137,182)"/>
<path d="M0 0 C2.31 0 4.62 0 7 0 C6.2575 0.680625 6.2575 0.680625 5.5 1.375 C3.77390663 2.87635519 3.77390663 2.87635519 4 5 C2.35 4.67 0.7 4.34 -1 4 C-0.34 3.34 0.32 2.68 1 2 C0.67 1.34 0.34 0.68 0 0 Z " fill="#100A06" transform="translate(446,365)"/>
<path d="M0 0 C-0.33 0.99 -0.66 1.98 -1 3 C-1.78375 3.12375 -2.5675 3.2475 -3.375 3.375 C-6.14057822 3.79117993 -6.14057822 3.79117993 -8 6 C-7.75 4.125 -7.75 4.125 -7 2 C-4.41847698 0.27898465 -3.15081975 0 0 0 Z " fill="#311E12" transform="translate(471,274)"/>
<path d="M0 0 C2.96404505 2.80804268 5.44499019 5.18315774 7 9 C3.17475764 7.549046 1.80909034 5.61818068 0 2 C0 1.34 0 0.68 0 0 Z " fill="#0B0201" transform="translate(96,227)"/>
<path d="M0 0 C-0.33 0.99 -0.66 1.98 -1 3 C-0.01 3 0.98 3 2 3 C2 3.66 2 4.32 2 5 C-3.75 3.375 -3.75 3.375 -6 0 C-3 -1 -3 -1 0 0 Z " fill="#D0CAC6" transform="translate(109,228)"/>
<path d="M0 0 C1.98 0.66 3.96 1.32 6 2 C6 3.32 6 4.64 6 6 C5.34 6 4.68 6 4 6 C4 5.34 4 4.68 4 4 C3.01 4.33 2.02 4.66 1 5 C0.67 3.35 0.34 1.7 0 0 Z " fill="#1C0A04" transform="translate(594,221)"/>
<path d="M0 0 C1.98 0 3.96 0 6 0 C6 0.99 6 1.98 6 3 C4.68 3.33 3.36 3.66 2 4 C1.34 2.68 0.68 1.36 0 0 Z " fill="#E0D6D0" transform="translate(345,189)"/>
<path d="M0 0 C0.99 0 1.98 0 3 0 C3.33 1.65 3.66 3.3 4 5 C2.68 4.67 1.36 4.34 0 4 C0 4.66 0 5.32 0 6 C-0.66 5.67 -1.32 5.34 -2 5 C-1.34 3.35 -0.68 1.7 0 0 Z " fill="#A08F84" transform="translate(433,179)"/>
<path d="M0 0 C2.475 0.99 2.475 0.99 5 2 C5 2.66 5 3.32 5 4 C3.35 4.33 1.7 4.66 0 5 C-0.5625 3.0625 -0.5625 3.0625 -1 1 C-0.67 0.67 -0.34 0.34 0 0 Z " fill="#2C1B13" transform="translate(130,176)"/>
<path d="M0 0 C-0.33 0.66 -0.66 1.32 -1 2 C-3.64 2 -6.28 2 -9 2 C-9 1.34 -9 0.68 -9 0 C-5.67465243 -1.10844919 -3.37817425 -0.84454356 0 0 Z " fill="#271005" transform="translate(460,344)"/>
<path d="M0 0 C0.33 0 0.66 0 1 0 C1.33 3.3 1.66 6.6 2 10 C-1.04095366 6.95904634 -1.68440793 6.10269692 -2 2 C-1.34 1.34 -0.68 0.68 0 0 Z " fill="#311E10" transform="translate(513,289)"/>
<path d="M0 0 C0.99 0 1.98 0 3 0 C2.67 1.65 2.34 3.3 2 5 C1.01 5.33 0.02 5.66 -1 6 C-1.625 4.125 -1.625 4.125 -2 2 C-1.34 1.34 -0.68 0.68 0 0 Z " fill="#301805" transform="translate(455,240)"/>
<path d="M0 0 C0.66 1.32 1.32 2.64 2 4 C1.01 4.99 0.02 5.98 -1 7 C-1.99 6.67 -2.98 6.34 -4 6 C-2.68 4.02 -1.36 2.04 0 0 Z " fill="#463932" transform="translate(145,224)"/>
<path d="M0 0 C-0.66 1.65 -1.32 3.3 -2 5 C-2.99 5 -3.98 5 -5 5 C-5 3.68 -5 2.36 -5 1 C-3 0 -3 0 0 0 Z " fill="#F1EDE6" transform="translate(437,185)"/>
<path d="M0 0 C1.32 0.66 2.64 1.32 4 2 C3.01 3.32 2.02 4.64 1 6 C0.34 5.67 -0.32 5.34 -1 5 C-0.67 3.35 -0.34 1.7 0 0 Z " fill="#321708" transform="translate(477,177)"/>
<path d="M0 0 C1.98 0.66 3.96 1.32 6 2 C5.01 2.99 4.02 3.98 3 5 C1.68 4.34 0.36 3.68 -1 3 C-0.67 2.01 -0.34 1.02 0 0 Z " fill="#311D11" transform="translate(497,154)"/>
<path d="M0 0 C2.125 0.9375 2.125 0.9375 4 2 C4 3.65 4 5.3 4 7 C3.67 6.34 3.34 5.68 3 5 C2.34 4.67 1.68 4.34 1 4 C-1 3 -1 3 -2 1 C-1.34 0.67 -0.68 0.34 0 0 Z " fill="#311D11" transform="translate(468,353)"/>
<path d="M0 0 C0.33 0 0.66 0 1 0 C1 1.65 1 3.3 1 5 C1.66 5 2.32 5 3 5 C3.66 6.32 4.32 7.64 5 9 C2.5625 8.1875 2.5625 8.1875 0 7 C-1.04449911 3.86650268 -0.93423645 3.01031744 0 0 Z " fill="#33190D" transform="translate(530,319)"/>
<path d="M0 0 C1.0625 1.875 1.0625 1.875 2 4 C1.67 4.66 1.34 5.32 1 6 C0.34 6 -0.32 6 -1 6 C-1 5.34 -1 4.68 -1 4 C-1.66 4 -2.32 4 -3 4 C-2.67 3.01 -2.34 2.02 -2 1 C-1.34 1.33 -0.68 1.66 0 2 C0 1.34 0 0.68 0 0 Z " fill="#200E01" transform="translate(565,265)"/>
<path d="M0 0 C2.64 0.33 5.28 0.66 8 1 C8.33 1.99 8.66 2.98 9 4 C6.03 3.01 3.06 2.02 0 1 C0 0.67 0 0.34 0 0 Z " fill="#2C160C" transform="translate(178,260)"/>
<path d="M0 0 C0.33 0.66 0.66 1.32 1 2 C0.67 2.99 0.34 3.98 0 5 C-1.32 5 -2.64 5 -4 5 C-4.33 3.68 -4.66 2.36 -5 1 C-3.35 0.67 -1.7 0.34 0 0 Z " fill="#67534A" transform="translate(414,214)"/>
</svg>
